<?xml version="1.0" encoding="utf-8"?>
<!-- Generator: Adobe Illustrator 21.1.0, SVG Export Plug-In . SVG Version: 6.00 Build 0)  -->
<svg version="1.1" id="Layer_1" xmlns="http://www.w3.org/2000/svg" xmlns:xlink="http://www.w3.org/1999/xlink" x="0px" y="0px"
	 viewBox="0 0 55 22.3" style="enable-background:new 0 0 55 22.3;" xml:space="preserve">
<style type="text/css">
	.st0{fill:none;}
	.st1{enable-background:new    ;}
	.st2{fill:#822D1A;}
	.st3{fill:#333333;}
</style>
<rect y="-2.9" class="st0" width="24.2" height="32"/>
<g class="st1">
	<path class="st2" d="M1.5,3c1.2-0.2,2.2-0.3,3-0.4c0.8-0.1,1.2-0.1,1.4-0.1c0.3,0,0.5,0.2,0.5,0.6v14.4c0,0.2-0.1,0.4-0.4,0.4
		c-0.2,0-0.4,0.1-0.6,0.1c-0.2,0-0.4,0-0.6,0.1c-0.2,0-0.4,0-0.5,0c-0.2,0-0.3,0-0.4,0c-0.2,0-0.4-0.1-0.4-0.4V5.3
		c0-0.3,0-0.6,0-0.8S3.5,4.1,3.5,4C3.4,3.9,3.3,3.8,3.2,3.7C3,3.7,2.8,3.7,2.6,3.7c-0.1,0-0.3,0-0.4,0c-0.2,0-0.3,0-0.5,0L1.5,3z"/>
	<path class="st2" d="M10.8,15.5c0,0.1,0,0.2,0,0.2c0,0.1,0,0.2,0,0.2c0,0.9,0.2,1.5,0.7,2s1.1,0.7,1.9,0.7c0.6,0,1.1-0.1,1.5-0.3
		c0.5-0.2,0.8-0.4,1.1-0.7c0.3-0.3,0.5-0.7,0.7-1.1s0.2-0.9,0.2-1.5c0-0.8-0.1-1.4-0.4-1.9c-0.2-0.5-0.6-0.9-1-1.2s-0.9-0.5-1.5-0.6
		s-1.2-0.2-1.9-0.2h-0.4l-0.1-1.1h0.2c1.5,0,2.6-0.3,3.4-0.8s1.1-1.4,1.1-2.7c0-0.5-0.1-1-0.2-1.4s-0.4-0.7-0.6-1s-0.6-0.5-1-0.6
		s-0.8-0.2-1.2-0.2c-0.4,0-0.9,0.1-1.3,0.2s-0.7,0.3-1,0.6s-0.6,0.6-0.8,1S9.9,6.2,9.9,6.8L9.1,6.7c0-0.1,0-0.2,0-0.5s0-0.6,0-1
		c0-0.4,0-0.7,0.1-1.1c0-0.4,0-0.7,0.1-0.9c0-0.1,0.1-0.3,0.3-0.3c0.6-0.2,1.2-0.3,1.9-0.5s1.5-0.2,2.3-0.2c0.7,0,1.4,0.1,2,0.2
		S17,2.7,17.5,3s0.9,0.7,1.2,1.2s0.5,1.1,0.5,1.9c0,0.4-0.1,0.9-0.2,1.3s-0.4,0.8-0.7,1.2c-0.3,0.4-0.6,0.7-1.1,1s-0.9,0.5-1.5,0.7
		v0.1c0.2,0,0.4,0.1,0.7,0.2s0.6,0.2,0.9,0.3c0.3,0.1,0.6,0.3,0.9,0.5s0.6,0.5,0.8,0.8s0.4,0.7,0.6,1.1s0.2,0.9,0.2,1.4
		c0,0.6-0.1,1.2-0.3,1.7c-0.2,0.5-0.4,0.9-0.7,1.3s-0.7,0.7-1.1,1c-0.4,0.3-0.9,0.5-1.4,0.7s-1,0.3-1.5,0.4
		c-0.5,0.1-1.1,0.1-1.6,0.1c-0.7,0-1.3-0.1-1.9-0.2c-0.6-0.1-1.2-0.3-1.6-0.6c-0.5-0.3-0.9-0.6-1.1-1c-0.3-0.4-0.4-0.8-0.4-1.3
		c0-0.3,0.1-0.5,0.2-0.7s0.3-0.4,0.4-0.5c0.2-0.1,0.4-0.2,0.6-0.3c0.2-0.1,0.5-0.1,0.7-0.1c0.1,0,0.2,0,0.4,0
		C10.5,15.4,10.7,15.4,10.8,15.5z"/>
</g>
<g class="st1">
	<path class="st3" d="M28.4,11.8l1.7,5.6c0.1,0.4,0.2,0.8,0.2,0.8h0c0,0,0-0.4,0.2-0.8l1.6-5.6h1.2L31,19.5h-1.4l-1.5-4.9
		c-0.1-0.5-0.3-1.1-0.3-1.1h0c0,0-0.1,0.6-0.3,1.1l-1.5,4.9h-1.4l-2.2-7.6h1.2l1.5,5.6c0.1,0.4,0.2,0.8,0.2,0.8h0
		c0,0,0.1-0.4,0.2-0.8l1.7-5.6H28.4z"/>
	<path class="st3" d="M38.7,17.3h-3.2l-0.8,2.2h-1.2l3-7.6h1.2l3,7.6h-1.2L38.7,17.3z M37.1,12.9c0,0-0.2,0.7-0.3,1.1l-0.9,2.4h2.6
		L37.4,14C37.3,13.6,37.1,12.9,37.1,12.9L37.1,12.9z"/>
	<path class="st3" d="M43.2,16.2l-2.8-4.4h1.3l1.6,2.5c0.3,0.4,0.5,1,0.5,1h0c0,0,0.3-0.5,0.5-1l1.5-2.5h1.3l-2.8,4.4v3.2h-1.2V16.2
		z"/>
	<path class="st3" d="M48.5,17.8c0,0,0.9,0.8,2.2,0.8c0.8,0,1.5-0.4,1.5-1.1c0-1.7-4.1-1.3-4.1-3.6c0-1.2,1.1-2.1,2.7-2.1
		c1.6,0,2.4,0.8,2.4,0.8l-0.5,0.9c0,0-0.8-0.7-1.9-0.7c-0.9,0-1.5,0.5-1.5,1.1c0,1.6,4.1,1.2,4.1,3.6c0,1.2-1,2.1-2.7,2.1
		c-1.8,0-2.8-1-2.8-1L48.5,17.8z"/>
</g>
</svg>
