<?xml version="1.0" encoding="utf-8"?>
<!-- Generator: Adobe Illustrator 21.0.1, SVG Export Plug-In . SVG Version: 6.00 Build 0)  -->
<svg version="1.1" id="Layer_1" xmlns="http://www.w3.org/2000/svg" xmlns:xlink="http://www.w3.org/1999/xlink" x="0px" y="0px"
	 viewBox="0 0 31 31" style="enable-background:new 0 0 31 31;" xml:space="preserve">
<style type="text/css">
	.st0{fill:#333333;stroke:#333333;stroke-miterlimit:10;}
	.st1{fill:none;stroke:#F9A01B;stroke-miterlimit:10;}
	.st2{fill:#F9A01F;}
	.st3{fill:#333333;}
</style>
<circle class="st0" cx="15.5" cy="15.5" r="14.5"/>
<line class="st1" x1="54.4" y1="89.3" x2="125.1" y2="89.3"/>
<rect x="13.9" y="8.6" class="st2" width="1.3" height="14.5"/>
<rect x="11.9" y="11.2" class="st2" width="1.3" height="9.2"/>
<rect x="15.9" y="11.2" class="st2" width="1.3" height="9.2"/>
<rect x="7.9" y="12.5" class="st2" width="1.2" height="6.5"/>
<rect x="17.9" y="13.2" class="st2" width="1.2" height="5.2"/>
<rect x="23.8" y="13.2" class="st2" width="1.3" height="5.2"/>
<rect x="5.9" y="13.9" class="st2" width="1.3" height="3.9"/>
<rect x="9.9" y="13.9" class="st2" width="1.3" height="3.9"/>
<rect x="19.9" y="13.9" class="st2" width="1.2" height="3.9"/>
<rect x="25.8" y="14.2" class="st2" width="1.3" height="3.2"/>
<rect x="3.9" y="14.5" class="st2" width="1.3" height="2.6"/>
<rect x="21.8" y="14.5" class="st2" width="1.3" height="2.6"/>
<rect x="27.8" y="15.2" class="st2" width="1.3" height="1.2"/>
<rect x="1.9" y="15.2" class="st2" width="1.3" height="1.3"/>
<rect x="-51.5" y="13.2" class="st3" width="29.3" height="44.8"/>
<rect x="38.8" y="2.2" class="st2" width="11.8" height="15.5"/>
</svg>
