<?xml version="1.0" encoding="utf-8"?>
<!-- Generator: Adobe Illustrator 21.1.0, SVG Export Plug-In . SVG Version: 6.00 Build 0)  -->
<svg version="1.1" id="Layer_1" xmlns="http://www.w3.org/2000/svg" xmlns:xlink="http://www.w3.org/1999/xlink" x="0px" y="0px"
	 viewBox="0 0 31 31" style="enable-background:new 0 0 31 31;" xml:space="preserve">
<style type="text/css">
	.st0{fill:none;stroke:#333333;stroke-miterlimit:10;}
	.st1{fill:none;stroke:#F9A01B;stroke-miterlimit:10;}
	.st2{fill:#333333;}
	.st3{fill:#F9A01F;}
</style>
<circle class="st0" cx="15.5" cy="15.5" r="14.5"/>
<line class="st1" x1="54.4" y1="89.3" x2="125.1" y2="89.3"/>
<g>
	<rect x="9.9" y="7.2" class="st2" width="11.3" height="16.5"/>
	<rect x="8.3" y="7.2" class="st2" width="0.9" height="0.9"/>
	<rect x="8.3" y="8.6" class="st2" width="0.9" height="0.9"/>
	<rect x="8.3" y="10" class="st2" width="0.9" height="0.9"/>
	<rect x="8.3" y="11.4" class="st2" width="0.9" height="0.9"/>
	<rect x="8.3" y="12.9" class="st2" width="0.9" height="0.9"/>
	<rect x="8.3" y="14.3" class="st2" width="0.9" height="0.9"/>
	<rect x="8.3" y="15.7" class="st2" width="0.9" height="0.9"/>
	<rect x="8.3" y="17.1" class="st2" width="0.9" height="0.9"/>
	<rect x="8.3" y="18.5" class="st2" width="0.9" height="0.9"/>
	<rect x="8.3" y="19.9" class="st2" width="0.9" height="0.9"/>
	<rect x="8.3" y="21.3" class="st2" width="0.9" height="0.9"/>
	<rect x="8.3" y="22.8" class="st2" width="0.9" height="0.9"/>
	<rect x="21.9" y="7.2" class="st2" width="0.9" height="0.9"/>
	<rect x="21.9" y="8.6" class="st2" width="0.9" height="0.9"/>
	<rect x="21.9" y="10" class="st2" width="0.9" height="0.9"/>
	<rect x="21.9" y="11.4" class="st2" width="0.9" height="0.9"/>
	<rect x="21.9" y="12.8" class="st2" width="0.9" height="0.9"/>
	<rect x="21.9" y="14.3" class="st2" width="0.9" height="0.9"/>
	<rect x="21.9" y="15.7" class="st2" width="0.9" height="0.9"/>
	<rect x="21.9" y="17.1" class="st2" width="0.9" height="0.9"/>
	<rect x="21.9" y="18.5" class="st2" width="0.9" height="0.9"/>
	<rect x="21.9" y="19.9" class="st2" width="0.9" height="0.9"/>
	<rect x="21.9" y="21.3" class="st2" width="0.9" height="0.9"/>
	<rect x="21.9" y="22.7" class="st2" width="0.9" height="0.9"/>
</g>
<polygon class="st3" points="14.7,13.3 17.7,15.7 14.7,18 "/>
</svg>
