<?xml version="1.0" encoding="utf-8"?>
<!-- Generator: Adobe Illustrator 21.0.1, SVG Export Plug-In . SVG Version: 6.00 Build 0)  -->
<svg version="1.1" id="Layer_1" xmlns="http://www.w3.org/2000/svg" xmlns:xlink="http://www.w3.org/1999/xlink" x="0px" y="0px"
	 viewBox="0 0 60 60" style="enable-background:new 0 0 60 60;" xml:space="preserve">
<style type="text/css">
	.st0{fill:#333333;}
	.st1{fill:none;stroke:#F9A01B;stroke-miterlimit:10;}
	.st2{fill:none;stroke:#F9A01B;stroke-width:0.5;stroke-miterlimit:10;}
	.st3{fill:#F9A01B;}
</style>
<circle class="st0" cx="30" cy="30" r="24.5"/>
<line class="st1" x1="68.9" y1="103.8" x2="139.6" y2="103.8"/>
<line class="st2" x1="1.5" y1="3" x2="58.8" y2="3"/>
<line class="st2" x1="1.5" y1="57" x2="58.8" y2="57"/>
<rect x="27.2" y="18.3" class="st3" width="2.1" height="24.5"/>
<rect x="23.9" y="22.8" class="st3" width="2.1" height="15.5"/>
<rect x="30.6" y="22.8" class="st3" width="2.1" height="15.5"/>
<rect x="17.1" y="25" class="st3" width="2.1" height="11"/>
<rect x="34" y="26.1" class="st3" width="2.1" height="8.8"/>
<rect x="44.1" y="26.1" class="st3" width="2.1" height="8.8"/>
<rect x="13.8" y="27.2" class="st3" width="2.1" height="6.6"/>
<rect x="20.5" y="27.2" class="st3" width="2.2" height="6.6"/>
<rect x="37.4" y="27.2" class="st3" width="2.1" height="6.6"/>
<rect x="47.4" y="27.8" class="st3" width="2.1" height="5.4"/>
<rect x="10.4" y="28.4" class="st3" width="2.1" height="4.3"/>
<rect x="40.7" y="28.4" class="st3" width="2.2" height="4.3"/>
<rect x="50.8" y="29.5" class="st3" width="2.2" height="2.1"/>
<rect x="7" y="29.4" class="st3" width="2.1" height="2.1"/>
</svg>
