<?xml version="1.0" encoding="utf-8"?>
<!-- Generator: Adobe Illustrator 21.0.1, SVG Export Plug-In . SVG Version: 6.00 Build 0)  -->
<svg version="1.1" id="Layer_1" xmlns="http://www.w3.org/2000/svg" xmlns:xlink="http://www.w3.org/1999/xlink" x="0px" y="0px"
	 viewBox="0 0 60 60" style="enable-background:new 0 0 60 60;" xml:space="preserve">
<style type="text/css">
	.st0{fill:#333333;}
	.st1{fill:#F9A01B;}
	.st2{fill:none;stroke:#F9A01B;stroke-miterlimit:10;}
	.st3{fill:none;stroke:#F9A01B;stroke-width:0.5;stroke-miterlimit:10;}
	.st4{fill:#822E1A;}
</style>
<circle class="st0" cx="30" cy="30" r="24.5"/>
<g>
	
		<rect x="15.9" y="21.1" transform="matrix(-1.836970e-16 1 -1 -1.836970e-16 61.2547 0.713)" class="st1" width="28.7" height="19.7"/>
	
		<rect x="17.6" y="16.7" transform="matrix(-1.836970e-16 1 -1 -1.836970e-16 35.8554 -0.948)" class="st1" width="1.6" height="1.6"/>
	
		<rect x="17.6" y="19.1" transform="matrix(-1.836970e-16 1 -1 -1.836970e-16 38.3184 1.515)" class="st1" width="1.6" height="1.6"/>
	
		<rect x="17.6" y="21.6" transform="matrix(-1.836970e-16 1 -1 -1.836970e-16 40.7813 3.9779)" class="st1" width="1.6" height="1.6"/>
	
		<rect x="17.6" y="24" transform="matrix(-1.836970e-16 1 -1 -1.836970e-16 43.2443 6.4409)" class="st1" width="1.6" height="1.6"/>
	
		<rect x="17.6" y="26.5" transform="matrix(-1.836970e-16 1 -1 -1.836970e-16 45.7073 8.9039)" class="st1" width="1.6" height="1.6"/>
	
		<rect x="17.6" y="29" transform="matrix(-1.836970e-16 1 -1 -1.836970e-16 48.1702 11.3668)" class="st1" width="1.6" height="1.6"/>
	
		<rect x="17.6" y="31.4" transform="matrix(-1.836970e-16 1 -1 -1.836970e-16 50.6332 13.8298)" class="st1" width="1.6" height="1.6"/>
	
		<rect x="17.6" y="33.9" transform="matrix(-1.836970e-16 1 -1 -1.836970e-16 53.0961 16.2927)" class="st1" width="1.6" height="1.6"/>
	
		<rect x="17.6" y="36.4" transform="matrix(-1.836970e-16 1 -1 -1.836970e-16 55.5591 18.7557)" class="st1" width="1.6" height="1.6"/>
	
		<rect x="17.6" y="38.8" transform="matrix(-1.836970e-16 1 -1 -1.836970e-16 58.0221 21.2187)" class="st1" width="1.6" height="1.6"/>
	
		<rect x="17.6" y="41.3" transform="matrix(-1.836970e-16 1 -1 -1.836970e-16 60.485 23.6816)" class="st1" width="1.6" height="1.6"/>
	
		<rect x="17.6" y="43.7" transform="matrix(-1.836970e-16 1 -1 -1.836970e-16 62.948 26.1446)" class="st1" width="1.6" height="1.6"/>
	
		<rect x="41.3" y="16.7" transform="matrix(-1.836970e-16 1 -1 -1.836970e-16 59.5937 -24.6863)" class="st1" width="1.6" height="1.6"/>
	
		<rect x="41.3" y="19.1" transform="matrix(-1.836970e-16 1 -1 -1.836970e-16 62.0566 -22.2233)" class="st1" width="1.6" height="1.6"/>
	
		<rect x="41.3" y="21.6" transform="matrix(-1.836970e-16 1 -1 -1.836970e-16 64.5196 -19.7603)" class="st1" width="1.6" height="1.6"/>
	
		<rect x="41.3" y="24" transform="matrix(-1.836970e-16 1 -1 -1.836970e-16 66.9826 -17.2974)" class="st1" width="1.6" height="1.6"/>
	
		<rect x="41.3" y="26.5" transform="matrix(-1.836970e-16 1 -1 -1.836970e-16 69.4455 -14.8344)" class="st1" width="1.6" height="1.6"/>
	
		<rect x="41.3" y="29" transform="matrix(-1.836970e-16 1 -1 -1.836970e-16 71.9085 -12.3715)" class="st1" width="1.6" height="1.6"/>
	
		<rect x="41.3" y="31.4" transform="matrix(-1.836970e-16 1 -1 -1.836970e-16 74.3715 -9.9085)" class="st1" width="1.6" height="1.6"/>
	
		<rect x="41.3" y="33.9" transform="matrix(-1.836970e-16 1 -1 -1.836970e-16 76.8344 -7.4455)" class="st1" width="1.6" height="1.6"/>
	
		<rect x="41.3" y="36.4" transform="matrix(-1.836970e-16 1 -1 -1.836970e-16 79.2974 -4.9826)" class="st1" width="1.6" height="1.6"/>
	
		<rect x="41.3" y="38.8" transform="matrix(-1.836970e-16 1 -1 -1.836970e-16 81.7603 -2.5196)" class="st1" width="1.6" height="1.6"/>
	
		<rect x="41.3" y="41.3" transform="matrix(-1.836970e-16 1 -1 -1.836970e-16 84.2233 -5.663580e-02)" class="st1" width="1.6" height="1.6"/>
	
		<rect x="41.3" y="43.7" transform="matrix(-1.836970e-16 1 -1 -1.836970e-16 86.6863 2.4063)" class="st1" width="1.6" height="1.6"/>
</g>
<line class="st2" x1="68.9" y1="103.8" x2="139.6" y2="103.8"/>
<line class="st3" x1="1.5" y1="3" x2="58.8" y2="3"/>
<line class="st3" x1="1.5" y1="57" x2="58.8" y2="57"/>
<polygon class="st4" points="28.7,27.3 34,31.4 28.7,35.5 "/>
<line class="st2" x1="-105.2" y1="101.5" x2="-34.5" y2="101.5"/>
<rect x="-40.8" y="36.4" class="st4" width="5.5" height="13"/>
</svg>
