<?xml version="1.0" encoding="utf-8"?>
<!-- Generator: Adobe Illustrator 21.0.1, SVG Export Plug-In . SVG Version: 6.00 Build 0)  -->
<svg version="1.1" id="Layer_1" xmlns="http://www.w3.org/2000/svg" xmlns:xlink="http://www.w3.org/1999/xlink" x="0px" y="0px"
	 viewBox="0 0 82 82" style="enable-background:new 0 0 82 82;" xml:space="preserve">
<style type="text/css">
	.st0{fill:none;stroke:#F9A01B;stroke-width:0.5;stroke-miterlimit:10;}
	.st1{fill:none;stroke:#333333;stroke-miterlimit:10;}
	.st2{fill:#822E1A;}
	.st3{fill:#F9A01B;}
	.st4{fill:#FFFFFF;}
	.st5{fill:none;stroke:#822E1A;stroke-width:0.25;stroke-miterlimit:10;}
</style>
<polyline class="st0" points="69,30.7 40.4,36.6 15.3,28.5 "/>
<polyline class="st0" points="67.8,32.3 39.8,38.2 15.3,30.1 "/>
<polyline class="st0" points="67.8,33.9 39.9,39.8 15.3,31.7 "/>
<polyline class="st0" points="67.2,52.6 38.7,60.7 12.9,52.6 "/>
<polyline class="st0" points="66,54.5 38.2,62.5 13,54.5 "/>
<polyline class="st0" points="66.1,56.3 38.3,64.4 13.1,56.3 "/>
<circle class="st1" cx="41" cy="41.2" r="40"/>
<polyline class="st0" points="17.3,41.4 44.7,47.2 69.3,39.5 "/>
<polyline class="st0" points="17.3,43.6 45.6,49.4 71,41.7 "/>
<polyline class="st0" points="17.3,45.8 45.6,51.6 71,44 "/>
<g>
	<path class="st2" d="M11.9,47.6c1.2-0.9,2.6-1.2,4-1.7c0.3-0.1,0.5-0.2,0.5-0.6c0.1-1.4,0.2-2.9-0.3-4.2c-0.3-0.9-0.8-1.5-1.8-1.8
		c-0.4-0.1-0.7-0.3-1-0.5c-0.6-0.4-0.4-1.1,0.2-1.3c0.8-0.3,1.6-0.5,2.4-0.7c-0.9-1-1.5-2-1.7-3.3c-0.5-2.2-0.7-4.4,0.3-6.5
		c0.7-1.7,2.1-2.5,3.9-2.7c3.7-0.5,7.4-1,11.1-1.5c3.5-0.5,6.9-0.9,10.4-1.4c3.2-0.4,6.3-0.9,9.5-1.3c0.6-0.1,1.2-0.2,1.8-0.2
		c0.4,0,0.8,0.1,1.2,0.2c4.6,1.4,9.1,2.8,13.7,4.1c2,0.6,4,1.2,6,1.8c0.2,0.1,0.5,0.3,0.6,0.5c0.1,0.2-0.1,0.6-0.3,0.7
		c-0.2,0.2-0.6,0.4-0.9,0.5c-1.3,0.4-1.8,1.4-2.1,2.6c-0.3,1.2-0.3,2.5-0.1,3.7c0,0.2,0.3,0.4,0.4,0.4c1.1,0.4,2.2,0.8,3.3,1.2
		c0.3,0.1,0.5,0.4,0.7,0.6c-0.3,0.2-0.5,0.4-0.8,0.4c-0.8,0.2-1.6,0.4-2.4,0.6c1.4,1.8,1.5,3.8,1.3,5.9c-0.2,2.1-0.7,4-2.5,5.5
		c0.4,0.1,0.8,0.2,1.1,0.4c0.6,0.2,0.7,0.7,0.3,1.1c-0.2,0.2-0.5,0.5-0.9,0.6c-1.3,0.4-1.9,1.3-2.2,2.5c-0.3,1.3-0.3,2.5-0.1,3.8
		c0,0.1,0.2,0.3,0.3,0.3c0.8,0.3,1.7,0.6,2.6,0.9c0.4,0.1,0.8,0.3,1.1,0.6c0.2,0.1,0.3,0.3,0.3,0.5c0,0.1-0.3,0.3-0.4,0.3
		c-1.8,0.5-3.6,0.9-5.4,1.3c-2.9,0.7-5.8,1.4-8.8,2.1c-5,1.2-10,2.4-15.1,3.6c-1.3,0.3-2.5,0.6-3.8,0.9c-0.3,0.1-0.6,0.1-0.9,0
		c-4-1.3-7.9-2.6-11.8-3.8c-3.4-1.1-6.9-2.2-10.3-3.4c-1-0.3-1.6-1.1-2.1-2c-0.6-1.1-0.8-2.2-1-3.4c0-0.2-0.1-0.3-0.1-0.5
		c0-0.7,0-1.4,0-2.2c0.2-1,0.4-2,1-2.9c0.2-0.3,0.4-0.6,0.7-0.9c-0.6-0.2-1.1-0.4-1.7-0.6C11.9,47.8,11.9,47.7,11.9,47.6z
		 M39.6,41.5c0-0.1,0.1-0.2,0.1-0.3c0.1-2.2,0.2-4.5,0.2-6.7c0-0.3-0.1-0.4-0.3-0.4c-2.8-0.9-5.6-1.8-8.3-2.7
		c-4.3-1.4-8.5-2.8-12.8-4.2c-1.3-0.4-2-0.1-2.4,1.2c-0.6,2-0.4,4,0.4,5.9c0.3,0.6,0.7,1.1,1.4,1.2c0.7,0.2,1.4,0.4,2.1,0.6
		c2.9,0.8,5.8,1.6,8.7,2.4c3.1,0.9,6.3,1.8,9.4,2.7C38.5,41.2,39,41.3,39.6,41.5z M45.9,53c0.1,0,0.2,0,0.2,0
		c4.8-1.3,9.6-2.7,14.4-4c2.3-0.6,4.5-1.3,6.8-1.9c1-0.3,1.6-0.8,2-1.7c0.6-1.5,0.6-3.1,0.4-4.7c0-0.4-0.2-0.8-0.3-1.2
		c-0.4-1-1.2-1.3-2.2-0.9c-2,0.7-4.1,1.3-6.1,2c-5,1.6-10,3.3-15.1,4.9c-0.3,0.1-0.5,0.3-0.4,0.6c0.1,2.2,0.2,4.3,0.2,6.5
		C45.8,52.7,45.8,52.9,45.9,53z M37.7,64.6c0-0.1,0-0.2,0-0.3c0.1-2.2,0.1-4.5,0.2-6.7c0-0.3-0.2-0.4-0.4-0.5
		c-1.8-0.6-3.6-1.2-5.4-1.8c-5.3-1.7-10.5-3.4-15.8-5.1c-1-0.3-1.9,0-2.2,1.1c-0.6,1.8-0.5,3.7,0.1,5.5c0.3,1,1,1.6,2.2,1.9
		c2.4,0.6,4.7,1.3,7.1,2c4.2,1.2,8.4,2.4,12.6,3.5C36.7,64.3,37.2,64.4,37.7,64.6z M40.9,41.5c9.1-2.3,18.1-4.5,27-6.7
		c0-1.1-0.1-2.2,0-3.2c0.1-1,0.4-2,0.5-3.1c-0.1,0-0.4,0-0.6,0.1c-4.2,0.9-8.4,1.7-12.6,2.6c-4.6,0.9-9.2,1.9-13.7,2.8
		c-0.3,0.1-0.4,0.2-0.5,0.5c0,1.5-0.1,3-0.2,4.5C40.9,39.9,40.9,40.6,40.9,41.5z M44.6,53.1c0-0.2,0-0.3,0-0.4
		c-0.1-2.2-0.1-4.4-0.2-6.6c0-0.3-0.2-0.4-0.4-0.4c-3.1-0.6-6.2-1.3-9.4-1.9c-4.9-1-9.8-2-14.8-3.1c-1-0.2-2-0.4-3-0.6
		c0.2,0.5,0.3,0.9,0.5,1.4c0.4,1.5,0.3,3,0.1,4.5c0,0.3,0,0.5,0.4,0.6c3.3,0.8,6.7,1.7,10,2.5c4.4,1.1,8.8,2.2,13.2,3.3
		C42.2,52.5,43.3,52.7,44.6,53.1z M39,64.6c0.2,0,0.3,0,0.4-0.1c2.6-0.6,5.2-1.3,7.7-1.9c3.6-0.9,7.1-1.8,10.7-2.7
		c2.6-0.7,5.3-1.3,7.9-2c0.4-0.1,0.4-0.2,0.4-0.6c-0.1-1.2-0.1-2.4,0-3.6c0-0.7,0.3-1.4,0.5-2.1c-0.1,0-0.3,0-0.4,0
		c-1.3,0.3-2.6,0.5-4,0.8c-2.6,0.5-5.1,1-7.7,1.6c-2.3,0.5-4.6,1.1-7,1.6c-0.9,0.2-1.8,0.8-2.7,0.4c0,0-0.1,0-0.1,0
		c-1.8,0.4-3.5,0.7-5.3,1.1c-0.3,0.1-0.4,0.2-0.4,0.6c0,1.6-0.1,3.3-0.2,4.9C39,63.3,39,63.9,39,64.6z"/>
</g>
<g>
	<polygon class="st3" points="55.4,15 61.7,16.4 57,20.8 	"/>
	<polygon class="st2" points="59.6,16 61.7,16.4 60.1,17.9 	"/>
	<polygon class="st3" points="34,27.2 32.4,21.4 55.4,15 55.8,16.4 57,20.9 	"/>
	<path class="st4" d="M32.8,27.5c-0.5,0.1-1-0.2-1.2-0.8l-1-3.6c-0.2-0.6,0.1-1.2,0.6-1.3l0,0c0.5-0.1,1,0.2,1.2,0.8l1,3.6
		C33.6,26.8,33.3,27.4,32.8,27.5L32.8,27.5z"/>
	<rect x="32.4" y="21.3" transform="matrix(0.9643 -0.2649 0.2649 0.9643 -5.2437 9.6535)" class="st2" width="1.6" height="6"/>
</g>
<polyline class="st5" points="55.4,15.4 56.8,16.2 56.1,17.9 57.5,17.9 56.8,19.5 57.5,19.5 56.8,20.5 "/>
</svg>
