<?xml version="1.0" encoding="utf-8"?>
<!-- Generator: Adobe Illustrator 21.0.1, SVG Export Plug-In . SVG Version: 6.00 Build 0)  -->
<svg version="1.1" id="Layer_1" xmlns="http://www.w3.org/2000/svg" xmlns:xlink="http://www.w3.org/1999/xlink" x="0px" y="0px"
	 viewBox="0 0 76.3 96.7" style="enable-background:new 0 0 76.3 96.7;" xml:space="preserve">
<style type="text/css">
	.st0{fill:#F9A01B;}
	.st1{fill:#333333;}
	.st2{fill:#822D1A;}
	.st3{fill:none;}
</style>
<g>
	<path class="st0" d="M57.9,63.7c-3.4-0.1-6-1.4-9.1-3.2c-1.6-0.9-3.2-2-4.6-3.2c-1.2-1-3-2.5-3.6-4.1c1.2,0.3,2.4,1.5,3.5,2.2
		c1.3,0.7,2.7,1.3,4.1,1.8c2.7,1,5.9,1.4,8.7,1.5c2.2,0.1,4.2,0.1,5.6-1.5c-2.6,1.1-3.8,0.9-6,0.6c-2-0.3-3.9-0.8-5.8-1.4
		c-1.7-0.6-3.5-1.3-5.1-2.3c-1.4-0.8-3.2-1.7-4.1-3.3c0.8-0.3,1.6,0.2,2.4,0.5c0.8,0.3,1.7,0.6,2.5,0.8c1.7,0.5,3.4,0.7,5.1,0.8
		c2.3,0.1,4.6-0.1,6.8-0.8c2.1-0.6,4.4-1.5,6-2.9c0.5-0.5,0.6-0.8,0.8-1.4c-0.4,0.8-1.2,1.2-1.9,1.6c-0.8,0.5-1.6,0.9-2.5,1.3
		c-1.8,0.7-3.7,1-5.6,1.2c-3.5,0.5-7.5-0.4-10.9-2c-0.7-0.3-1.5-0.7-2.1-1.3c-0.1-0.1-0.2-0.2-0.3-0.3c-0.2-0.7,2.7-1.1,3.2-1.2
		c3.5-1.2,5-1.5,8.6-2.8c2.5-0.9,4.9-2.1,7.2-3.4c0.3-0.2,2.3-1.3,2.5-1.6c0.2-0.3,0.6-0.3,0.4-0.6c-6,2.8-12.2,5-18.7,6.6
		c-1.1,0.3-2.1,0.5-3.2,0.7c-0.9,0.2-1.8,0.5-2.7,0c-0.1-0.7,0.3-1.4,0.5-2c0.3-0.8,0.6-1.5,1-2.3c1.7-3.5,4-6.7,6.7-9.3
		c1.8-1.8,3.8-3.3,5.9-4.5c0.5-0.3,1.1-0.6,1.6-0.9c0.4-0.2,0.8-0.7,1.3-0.7c-0.9,0-1.9,0.6-2.7,0.9c-3.5,1.5-6.7,3.6-9.4,6.4
		c-1.3,1.4-2.6,2.9-3.6,4.5c-0.5,0.8-1,1.6-1.5,2.5c-0.4,0.7-1.1,1.7-1.2,2.6c0.2-2.7,0.7-5.4,1.3-8.1c0.9-3.9,2.2-7.6,3.8-11.1
		c0.9-1.9,1.8-3.7,2.9-5.4c0.9-1.5,2.1-2.8,2.9-4.4c-1,0.8-1.9,1.8-2.8,2.8c-2.5,2.9-4.3,6.4-5.8,10c-0.8,1.9-1.4,3.8-2.1,5.7
		c-0.3,1-0.6,1.9-0.9,2.9c-0.2,0.7-0.9,2-0.8,2.8c-1.1-8-0.6-16.1,1.4-23.5c-3.9,8-3.4,17.9-2.8,27.4c-4.2-8.6-4.2-18.2-4.1-27.4
		c-2.3,9.4-1,20.1,3.3,29.5c0.5,1,0.9,2,1,3c0.2,0.3,0.3,0.7,0.4,1c0.5,0.8,1,1.6,1.5,2.3c0,0,0.1,0,0.1,0c0.6,0,1,0.7,1.3,1.3
		c2.2,4.5,5.7,8.4,9.9,10.6c4.2,2.2,9.2,2.6,13.1,0.6C60.6,63.4,58.8,63.7,57.9,63.7z"/>
	<path class="st0" d="M55,44.9c-4.3,2.9-8.8,5.1-13.6,5.4c5.5-3.4,11.1-7.1,15.1-12.6c0.1-0.5,0.4-1,0.6-1.5
		c-3.9,4.7-8.6,8.4-13.7,11.1c0.5-0.3,1.2-1.5,1.5-2.1c0.5-0.7,1.1-1.4,1.6-2.2c1-1.5,2.1-3,3-4.5c1.9-3,3.5-6.3,4.6-9.9
		c0.4-1.2,0.7-2.5,0.9-3.8c-0.8,1.5-1.2,3.1-1.9,4.6c-0.8,1.8-1.6,3.4-2.6,5.1c-1.7,3.1-3.8,6-6,8.6c-1.5,1.8-3.1,3.4-4.8,5
		c0.5-0.5,0.9-1.6,1.3-2.3c0.4-0.8,0.8-1.7,1.1-2.5c0.7-1.7,1.3-3.5,1.7-5.3c0.9-3.6,1.2-7.5,1-11.2c-0.1-0.9,0-2-0.3-2.8
		c0.2,0.4,0,1,0,1.5c0,0.6,0,1.2,0,1.8c-0.1,2.5-0.4,4.9-1,7.3c-0.8,3.6-2.1,7.1-3.8,10.3c-0.4,0.7-0.7,1.3-1.1,2
		c-0.3,0.5-0.6,1.2-1.1,1.4c-0.6-0.6-0.7-1.5-0.9-2.4c-0.2-1-0.4-2.1-0.6-3.1c-1.2-6.4-1.8-12.9-2-19.4c-0.3,0-0.1,0.4-0.3,0.7
		c-0.1,0.3-0.2,2.6-0.2,2.9c-0.1,2.6,0,5.3,0.2,7.9c0.3,3.7,0.7,5.1,1.1,8.8c0,0.4,0.8,3.2,0.3,3.3c-0.1,0-0.2,0-0.3-0.1
		c-0.6-0.3-1.1-0.7-1.5-1.2c-2.2-2.2-4.1-5.2-5-8.5c-0.5-1.8-0.9-3.6-1.1-5.4c-0.1-0.9,0-1.9,0-2.8c0-0.8,0-1.7,0.4-2.4
		c-0.3,0.5-0.5,0.7-0.6,1.4c-0.4,2.1-0.2,4.6,0.1,6.6c0.3,2.2,0.9,4.3,1.8,6.3c0.6,1.4,1.4,2.8,2.2,4c0.4,0.6,0.9,1.2,1.4,1.8
		c0.5,0.6,1,1,1.1,1.9c-1.3,0-2.5-1.2-3.5-2c-1.2-0.9-2.2-2.1-3.2-3.3c-1-1.4-2-2.8-2.9-4.4c-0.9-1.7-1.4-2.7-1.6-5.5
		c-0.6,2,0.1,3.7,0.9,5.6c1,2.4,2.3,5,3.9,6.8c0.8,1,1.7,1.8,2.6,2.7c0.8,0.7,2,1.1,2.6,2c-1.2,0.2-2.8-0.6-3.9-1.2
		c-1.3-0.7-2.5-1.5-3.6-2.5c-2.2-1.9-3.9-3.5-5.2-6.4c-0.3-0.7-0.7-2.4-1-3.2c0,4.3,1.9,8.5,4.8,11.1c2.9,2.6,6.6,3.7,10.3,3.5
		c1.2-0.1,2.1,0.9,3.4,0.7c1-0.1,2.1-0.6,3.1-0.7c4.9-0.4,9.7-2.3,14-5.3C54.6,46,54.8,45.4,55,44.9z"/>
	<path class="st1" d="M61,51.8c-4,2-7,2.2-10.7,2.3c-1.9,0.1-3.8-0.1-5.5-0.4c-1.5-0.3-3.6-0.8-4.4-2c1.4-0.4,2.8,0.1,4.2,0.1
		c1.6-0.1,3.2-0.3,4.8-0.6c3.2-0.6,6.9-2.3,10.1-3.8c2.5-1.2,4.9-2.5,6.4-5.1c-3,2.8-4.4,3.4-6.9,4.4c-2.3,0.9-4.5,1.6-6.8,2.1
		c-2,0.5-4.1,0.8-6,0.8c-1.7,0-3.8,0.2-4.9-0.9c0.9-0.8,1.8-0.8,2.8-1c1-0.2,1.9-0.4,2.9-0.7c2-0.6,4-1.4,5.9-2.3
		c2.7-1.3,5.3-3,7.8-5c2.3-1.9,5-4.3,6.8-6.8c0.6-0.8,0.6-1.2,0.9-2c-0.4,1.1-1.3,1.9-2.1,2.9c-0.9,1-1.8,2-2.8,2.9
		c-2,1.8-4.2,3.3-6.4,4.8c-4,2.7-8.7,4.2-12.7,4.7c-0.9,0.1-1.7,0.1-2.5,0c-0.1,0-0.3-0.1-0.3-0.2c-0.2-0.6,3.1-2.9,3.6-3.3
		c4-3.5,5.8-4.7,9.8-8.3c2.8-2.5,5.6-5.3,8.2-8.1c0.3-0.3,2.6-2.8,2.8-3.2c0.2-0.4,0.7-0.7,0.5-0.9C59.7,28.7,52.6,35,45.2,40.6
		c-1.2,0.9-2.4,1.8-3.6,2.7c-1,0.7-2.1,1.7-3.2,1.7c-0.2-0.6,0.3-1.7,0.5-2.4c0.3-1,0.7-2,1.1-3c1.8-4.8,4.3-9.5,7.3-14
		c2-3,4.2-5.8,6.6-8.4c0.6-0.6,1.2-1.3,1.8-1.9c0.4-0.5,0.9-1.2,1.5-1.5c-1,0.6-2.1,1.8-3.1,2.6c-4,3.7-7.6,8-10.6,12.5
		c-1.5,2.3-2.8,4.6-4,7c-0.6,1.2-1.1,2.4-1.6,3.6c-0.4,1-1.2,2.5-1.3,3.5c0.1-3,0.5-6.1,1.1-9.3c0.8-4.6,2.1-9.3,3.8-14
		c0.9-2.5,1.9-5,3.1-7.5c1-2.2,2.3-4.3,3.2-6.4c-1.1,1.5-2.2,3.1-3.1,4.7C42,15,40,19.8,38.5,24.6c-0.8,2.4-1.5,4.8-2.1,7.2
		c-0.3,1.2-0.6,2.4-0.9,3.6c-0.2,0.9-1,2.7-0.8,3.4c-1.7-7.7-1.5-16.5,0.5-25.5c-4.1,10.8-3,20.9-1.8,30.5
		c-5.3-6.3-5.8-16.5-6.1-26.2c-2.1,11.3-0.2,21.8,5.3,28.9c0.6,0.7,1.2,1.5,1.3,2.5c0.2,0.2,0.4,0.5,0.5,0.8c0.6,0.5,1.3,1,1.9,1.5
		c0,0,0.1,0,0.1-0.1c0.7-0.3,1.2,0.1,1.6,0.6c2.8,3.3,7,5.3,12,5c5-0.3,10.8-3,15.2-7.5C64,49.9,62,51.3,61,51.8z"/>
	<path class="st1" d="M38.8,46.1c1.4-0.1,2.3-1.2,3.3-2c1.2-1,2.3-2.1,3.4-3.1c6.9-6.5,13.2-13.7,18.9-21.4c0.4,0.3-0.1,0.6-0.2,1.1
		s-1.8,3.3-2.1,3.7c-2,3.2-4.4,6.4-6.8,9.3c-3.5,4.1-5.2,5.5-8.7,9.5c-0.4,0.5-3.7,3.1-3.1,3.8c0.1,0.1,0.3,0.2,0.5,0.2
		c1.1,0.2,2.2,0.1,3.2,0c4.9-0.6,10.2-2.4,14.1-5.5c2.1-1.7,4.3-3.4,6.1-5.5c0.9-1.1,1.6-2.2,2.3-3.4c0.6-1.1,1.4-2,1.4-3.3
		c0,0.9,0.1,1.3-0.2,2.3c-1.1,2.9-3.5,5.7-5.6,7.9c-2.3,2.3-4.9,4.3-7.7,5.8c-2.1,1.1-4.3,2-6.6,2.7c-1.1,0.3-2.3,0.6-3.5,0.8
		c-1.1,0.2-2.3,0.3-3.1,1.2c1.9,1.2,4.6,0.9,6.7,0.9c2.5,0,4.9-0.4,7.3-1c2.6-0.7,5.2-1.4,7.7-2.5c2.7-1.2,4.3-1.9,6.8-5.1
		c-0.8,3-3.2,4.4-5.9,5.9c-3.4,1.8-7.5,3.7-11.3,4.5c-1.9,0.4-3.9,0.6-5.9,0.7c-1.7,0.1-3.8-0.6-5.4,0c1.6,1.4,4.5,1.9,6.6,2.3
		c2.4,0.4,4.8,0.5,7.3,0.5C63,56.2,66.8,56,71,53.6c1-0.6,3.1-2.3,4-3c-3.6,5.2-9.8,8.4-16.1,8.8c-6.3,0.4-12.6-1.8-17.7-5.6
		c-0.7-0.5-1.6-1-2.3-0.7c-0.3,0.2-0.6,0.5-0.8,0.9C29,69.2,17.9,83.2,5.3,95.6c-0.6,0.5-1.4,1.1-2,0.6C3,96,2.9,95.5,2.9,95.2
		c-0.4-4.4,2.3-8.5,5.6-11.3s7.3-4.8,10.8-7.5c6.7-5.2,11.2-12.8,15-20.4c0.6-1.2,1.2-2.4,1-3.8c-0.2-1.9-2-3.3-3.5-4.5
		c-10.4-8.1-17.7-20-20.2-33c4.9,11.1,10.2,22.8,20,30C25.7,33.8,19.7,22.2,20,9.8c1.6,10.4,5.5,20.4,11.1,29.2
		c-0.5-0.8-0.4-3-0.5-3.9c-0.2-1.4-0.3-2.8-0.5-4.1c-0.3-2.8-0.5-5.5-0.6-8.3c-0.2-5.5,0.1-11,1.5-16.3c0.5-1.8,1-3.7,1.8-5.4
		c-0.1,2.5-0.8,4.9-1.1,7.4c-0.4,2.8-0.5,5.7-0.5,8.6c0,5.4,0.5,10.8,1.6,16.1c0.7,3.6,1.7,7.1,2.9,10.6c-0.4-1,0-2.9,0.1-4
		c0.1-1.4,0.2-2.7,0.4-4.1c0.4-2.7,1-5.4,1.9-8c1.7-5.2,4.4-10.1,7.8-14.4c0.8-1,1.7-2.4,2.7-3c-0.6,0.4-0.9,1.2-1.2,1.8
		c-0.4,0.8-1,1.5-1.4,2.2c-1.9,3.1-3.4,6.3-4.6,9.7c-1.8,5.2-2.8,10.6-3,16.1c0,1.2,0,2.3,0,3.5C38.4,44.2,38.3,45.4,38.8,46.1"/>
	<path class="st2" d="M16.7,81.8c0.1-2.3-7.6,2.8-8.2,3.3c-1.6,1.4-2.7,3.2-3.7,5c-0.5,1-2.2,4.5-0.9,5.4c0.9,0.7,2.3-1,2.8-1.7
		c1.8-2.1,3.5-4.1,5.3-6.2C13.3,86.1,16.2,83.7,16.7,81.8"/>
	<path class="st3" d="M57.3,28.8c2.7-4,5.4-8.3,5.7-13.2c-2.7,3.9-5,8-7,12.3c-0.1,0.3-0.1,0.7,0.2,1C56.4,29.1,57.1,29.1,57.3,28.8
		z"/>
	<path class="st0" d="M8,88.5c-2.1,2.4-2.9,4.8-2.9,4.8c0.1,0.1,1.8-1.8,3.9-4.2s5.1-6,5.1-6.1C14,83,10,86.1,8,88.5z"/>
</g>
<g>
	<path class="st1" d="M195.9,94.9c0.1,1.5-0.2,2.4-0.6,3.6c-0.2,0.6-0.5,1.1-0.8,1.6c-0.3,0.4-0.7,1-1.2,1.1c0-0.5,0.4-0.9,0.5-1.3
		c0.2-0.5,0.3-1,0.4-1.5c0.2-1.1,0.2-2.4,0.1-3.6c-0.1-0.9-0.1-1.8-0.7-2.6c0.5,1.3,0.5,1.8,0.5,2.6c0,0.8-0.1,1.6-0.2,2.3
		c-0.1,0.7-0.3,1.3-0.5,1.9c-0.2,0.5-0.4,1.2-0.9,1.4c-0.1-0.4,0-0.7,0.1-1c0.1-0.3,0.1-0.6,0.2-1c0.1-0.7,0.1-1.4,0-2.1
		c-0.1-1-0.2-2-0.5-3c-0.3-1-0.7-2.1-1.2-2.9c-0.2-0.3-0.3-0.3-0.5-0.5c0.3,0.3,0.4,0.6,0.6,1c0.2,0.4,0.4,0.8,0.5,1.2
		c0.3,0.8,0.5,1.7,0.6,2.5c0.3,1.5,0.2,3.2-0.2,4.4c-0.1,0.3-0.2,0.5-0.3,0.8c0,0-0.1,0.1-0.1,0.1c-0.2,0-0.5-1.3-0.5-1.5
		c-0.5-1.7-0.7-2.3-1.3-4c-0.4-1.2-0.9-2.4-1.4-3.5c-0.1-0.1-0.5-1.1-0.6-1.2c-0.1-0.1-0.1-0.3-0.2-0.3c1.2,2.9,2.2,5.8,3,8.8
		c0.1,0.5,0.2,1,0.4,1.4c0.1,0.4,0.3,0.8,0.1,1.2c-0.2,0-0.5-0.3-0.7-0.5c-0.3-0.2-0.5-0.5-0.8-0.7c-1.2-1.1-2.3-2.5-3.3-4
		c-0.6-1-1.2-2-1.7-3.1c-0.1-0.3-0.2-0.5-0.4-0.8c-0.1-0.2-0.3-0.4-0.3-0.6c0,0.4,0.3,0.9,0.4,1.3c0.6,1.7,1.5,3.3,2.5,4.8
		c0.5,0.7,1,1.4,1.6,2.1c0.3,0.3,0.6,0.6,0.9,0.9c0.2,0.2,0.6,0.7,0.9,0.8c-0.9-0.4-1.8-0.9-2.7-1.5c-1.3-0.8-2.6-1.8-3.8-2.9
		c-0.6-0.6-1.3-1.2-1.9-1.9c-0.5-0.6-1-1.2-1.5-1.8c0.3,0.5,0.7,1,1,1.5c1.1,1.4,2.3,2.6,3.5,3.7c0.6,0.5,1.3,1.1,1.9,1.5
		c0.3,0.2,0.7,0.5,1,0.7c0.2,0.2,0.7,0.6,0.9,0.7c-2.5-0.5-5.2-1.6-7.7-3.3c2.8,2.6,6,3.5,9,4.4c-2.6,0.8-5.7-0.3-8.7-1.4
		c3.2,2.1,6.6,2.8,9.4,2c0.3-0.1,0.6-0.2,0.9-0.1c0.1,0,0.2,0,0.3,0c0.2-0.1,0.5-0.3,0.7-0.4c0,0,0,0,0,0c0-0.3,0.2-0.3,0.4-0.4
		c1.3-0.4,2.5-1.5,3-3c0.5-1.6,0.4-3.7-0.4-5.6C195.7,93.8,195.8,94.6,195.9,94.9z"/>
	<path class="st1" d="M191.4,101c0.2-0.4-0.1-0.8-0.2-1.3c-0.2-0.5-0.3-1-0.5-1.4c-1.1-2.9-2.5-5.7-4.1-8.4c0.1-0.1,0.2,0.1,0.3,0.2
		s0.8,1,0.8,1.1c0.7,1,1.4,2.1,2,3.2c0.8,1.6,1,2.3,1.8,3.8c0.1,0.2,0.5,1.5,0.8,1.4c0.1,0,0.1-0.1,0.1-0.1c0.2-0.3,0.3-0.6,0.4-1
		c0.4-1.6,0.6-3.4,0.1-5c-0.2-0.9-0.5-1.7-0.9-2.5c-0.2-0.4-0.5-0.8-0.7-1.1c-0.2-0.3-0.4-0.7-0.8-0.8c0.3,0.1,0.4,0.1,0.7,0.4
		c0.7,0.7,1.3,1.8,1.7,2.7c0.4,1,0.7,2,0.8,3.1c0.1,0.8,0.1,1.6,0,2.3c0,0.4-0.1,0.8-0.2,1.2c-0.1,0.4-0.2,0.7,0,1.1
		c0.6-0.4,0.9-1.3,1.1-1.9c0.3-0.8,0.5-1.5,0.6-2.3c0.1-0.9,0.2-1.8,0.2-2.7c0-1,0-1.5-0.7-2.7c0.8,0.6,0.9,1.5,1,2.5
		c0.1,1.3,0.2,2.7-0.1,4c-0.1,0.6-0.3,1.3-0.5,1.9c-0.2,0.5-0.6,1.1-0.7,1.6c0.6-0.3,1.1-1.1,1.5-1.7c0.4-0.7,0.8-1.4,1.1-2.2
		c0.5-1.5,0.9-2.6,0.8-4.2c0-0.4-0.3-1.2-0.4-1.6c1.1,1.7,1.3,4,0.6,6c-0.7,2-2.1,3.6-3.9,4.7c-0.2,0.1-0.5,0.3-0.5,0.6
		c0,0.1,0.1,0.2,0.2,0.3c3.4,4.7,6.3,9.8,8.5,15.2c0.1,0.2,0.2,0.6-0.1,0.7c-0.1,0.1-0.3,0-0.4,0c-1.4-0.4-2.3-1.8-2.7-3.1
		c-0.4-1.4-0.5-2.8-0.9-4.2c-0.7-2.7-2.5-5-4.3-7.1c-0.3-0.3-0.6-0.7-1-0.8c-0.6-0.2-1.2,0.2-1.8,0.5c-3.7,2.2-8.3,2.9-12.5,2
		c4-0.1,8.2-0.3,11.6-2.4c-4,0.4-8.3,0.9-12-0.8c3.4,0.8,6.9,0.9,10.3,0.2c-0.3,0.1-0.9-0.2-1.3-0.3c-0.4-0.1-0.9-0.2-1.3-0.4
		c-0.9-0.3-1.7-0.5-2.6-0.8c-1.7-0.6-3.3-1.4-4.7-2.5c-0.5-0.4-1-0.8-1.4-1.2c0.7,0.3,1.4,0.9,2.1,1.3c0.8,0.5,1.7,0.9,2.5,1.2
		c1.6,0.7,3.3,1.2,5.1,1.5c1.2,0.2,2.4,0.4,3.6,0.4c-0.4,0-0.9-0.4-1.2-0.5c-0.4-0.2-0.8-0.4-1.2-0.6c-0.8-0.5-1.5-1-2.2-1.6
		c-1.4-1.2-2.5-2.6-3.4-4.2c-0.2-0.4-0.5-0.8-0.6-1.2c0,0.2,0.3,0.4,0.4,0.6c0.2,0.2,0.3,0.5,0.5,0.7c0.7,1,1.5,1.8,2.4,2.6
		c1.3,1.2,2.9,2.2,4.5,2.9c0.3,0.2,0.7,0.3,1,0.4C190.7,100.9,191.1,101,191.4,101"/>
	<path class="st2" d="M199.4,112.1c-0.7-0.3-0.1,2.7,0,2.9c0.2,0.7,0.6,1.2,1.1,1.8c0.2,0.3,1.1,1.2,1.5,1c0.3-0.2,0-0.8-0.2-1.1
		c-0.4-0.8-0.8-1.6-1.2-2.4C200.3,113.7,199.9,112.5,199.4,112.1"/>
	<path class="st0" d="M200.3,115.6c0.5,0.9,1.1,1.5,1.1,1.5c0,0-0.3-0.8-0.8-1.7c-0.5-0.9-1.2-2.3-1.2-2.3
		C199.4,113.1,199.9,114.7,200.3,115.6z"/>
</g>
<rect x="117.8" y="78.3" class="st3" width="77.2" height="14.3"/>
<text transform="matrix(1 0 0 1 117.8145 91.0404)" class="st1" style="font-family:'MuseoSans-500'; font-size:18px;">13 </text>
<text transform="matrix(1 0 0 0.9 143.0679 91.0404)" class="st1" style="font-family:'MuseoSans-500'; font-size:18px;">WAYS</text>
<text transform="matrix(1 0 0 1 194.0079 91.0404)" class="st1" style="font-family:'MuseoSans-500'; font-size:18px;"> </text>
<path d="M395.2,73.1c6.2,0,12.5-1,18.4,0.1c10.1,1.9,19.9,4.9,28.4,11.2c-3.4-1.4-6.8-2.7-10.4-4.2c1.2,6.5-3.9,9-6.7,12.8
	c-2,0-4.1-0.4-5.9,0.2c-1.3,0.4-3.3,2.2-3.2,3.2c0.3,3.1-1.3,4.4-3.6,5.7c-1,0.6-1.6,1.9-2.4,2.9c1.1,0.7,2.2,1.5,3.4,2.2
	c0.5,1.5,0.6,3.8,1.7,4.3c1.5,0.8,3.7,0.5,5.7,0.6c-1.1,0.5-2.2,1-3.3,1.5c0.1,0.3,0.1,0.6,0.2,0.9c3.4,0,6.9,0,10.3,0
	c0-0.6,0-1.1,0.1-1.7c-2.5-0.2-5-0.4-7.5-0.6c1.4-2.3,1.4-2.3-3.6-5.6c2.2-1.8,4.4-3.6,7.3-6c1.2,0.1,3.9,0.3,6.5,0.5
	c0.2-0.5,0.5-1,0.7-1.5c-2.2-2.2-4.5-4.5-6.7-6.7c0.8,0.2,1.8,0.2,2.4,0.6c4,2.9,5.7,1.7,6.5-2.9c0.4-2,2.3-3.8,4.2-6.7
	c4.4,3.9,7.9,7.1,11.4,10.3c-1.9,1-3.8,2.2-5.8,2.9c-1.2,0.4-2.7,0-4,0c0.4-2.8,0.8-5.6,1.2-8.7c-1.7,0-3.4,0-6.1,0
	c1.9,3.3,3.5,6,5,8.6c1.2,1.6,2.2,3.6,3.7,4.8c1.2,1,3.1,1.1,4.7,1.7c-0.1,0.2-0.1,0.4-0.2,0.5c-1.6-0.2-3.1-0.4-5.3-0.6
	c0.8,3,1.5,5.4,2.2,8.1c-2.6,0.6-5.9,1.3-9.1,2c2.9-1.3,4.9-3.5,3.5-6.5c-1.1-2.3-4.2-5.8-5.3-5.4c-3.1,1-5.7,3.6-8.3,5.9
	c-0.4,0.3,0.6,3.4,1.5,3.7c2.7,1.1,5.8,1.5,8.7,2.2c-6.8,1.7-13.5,3.4-18.7,4.8c10.6,1.2,21.9-4,34.6-7c-0.8,3.3-1.5,6-2.4,9.9
	c-1.3-3.1-1.9-4.6-2.6-6c-5.6,1.1-6.7,3.1-4.4,7.8c-2.2,0.7-4.4,1.4-5.9,1.9c-0.2-1.9-0.4-3.7-0.7-6.5c-4.7,6.2-4.7,6.2-9.7,1
	c-1.7,1.2-3.4,2.5-5.1,3.7c1.8-3.1,0.4-4-2.5-3.5c-5.9,1.1-8.7-2.2-11.3-6.8c-3.1-5.6-6.5-11.1-10.3-16.3
	c-4.1-5.4-7.3-10.9-5.5-17.8c0.5-2.1,2.6-3.7,3.9-5.6c0.4,0.4,0.9,1.2,1.3,1.2c4.7-0.3,6.8,1.3,7.1,6.2c2-0.8,3.8-1.5,5.7-2.3
	c-0.9-1.7-1.5-2.7-2.7-4.9C404,73.1,399.6,73.1,395.2,73.1z M412,86.2c3.9,3,6.7,1,10.2-0.4c3.9-1.6,2.6-5.5,5.1-7.6
	c-3.5-1.1-7-2.2-10.4-3.2c-0.1,0.2-0.1,0.5-0.2,0.7c1.2,0.6,2.3,1.3,2.3,1.3C416.5,80,414.3,83,412,86.2z"/>
<path d="M539.5,74.9c0.2,0.7,0.8,1.5,0.7,2.1c-0.2,1-0.8,1.9-1.2,2.8c0.4,0.3,0.8,0.5,1.2,0.8c-1.3,0.6-2.5,1.2-3.8,1.8
	c5.2,3.6,5.3,4.9,1.9,10.2c-4.8,7.3-9.5,14.7-14.1,22.1c-2.1,3.4-5,5.2-9.1,4.9c-1.5-0.1-2.9,0-4.5,0c6.4,12.7,5.1,21.6-4.3,28.6
	l0.1,0.1c0.7-1.5,1.5-3.1,2.3-4.8c-1.1,0.1-2,0.2-3,0.3c0.1-1.8,0.3-3.2,0.4-4.6c1-0.2,1.9-0.3,3-0.5c0.2,1.1,0.4,2.2,0.6,3.4
	c7.3-9.2,5.5-18.8-4-22.5c-3.9,5-3.9,5-9-0.7c-0.7,2-1.3,3.6-1.9,5.4c-2.1-0.6-3.8-1-4.6-1.2c0.2-2,1-4.2,0.3-5.5
	c-0.8-1.4-3.1-2.1-4.9-3.2c-0.8,2.4-1.3,3.8-1.7,5.1c-0.4,0.1-0.8,0.1-1.2,0.2c-0.6-2.6-1.2-5.3-2-8.6c12.7,3.1,24,8,34.7,7
	c-5.8-1.4-13-3.2-20.2-5c3.4-0.3,6.8-0.7,10.2-1c-1.4,1.9-1.1,3,1.4,3.1c3.3,0.2,6.6,1.3,9-2.8c1.5-2.6,6-4.3,6.3-6.8
	c0.5-4.2-7.3-5.4-5.9-11.1c0-0.2-2.1-1.3-3.3-1.4c-1.8-0.2-3.6,0.1-5.5,0.2c-2.6-2.1-3-7.2-8.1-6c0.5-1.1,1.3-2.1,1.6-3.2
	c0.4-1.3,0.4-2.6,0.6-3.9c0.8,0,1.5-0.1,2.3-0.1c1.1-0.3,2.1-0.5,2.5-0.6c0.5,1.9,0.4,4.2,1.4,4.9c6.4,4.6,7.2,4.6,12.4,2
	c-0.9-1.7-1.6-3.6-2.7-5.1c-1.2-1.6-2.8-2.8-4.1-4.1c0.9-0.5,2.5-1.2,4.1-2l-0.2,0.1c2.7-0.3,5.4-0.7,8.4-1.1
	c-1,1.4-1.7,2.5-2.9,4.1c2.4,0.7,4.3,1.2,6.4,1.8c-0.4-4.9,1.5-6.2,7.7-5.9C537.7,74.4,538.6,74.6,539.5,74.9z"/>
<path d="M453.8,127.3c1.4-3.5,2.8-7,4.3-10.6c-1.9-1-6.1-1.9-0.4-4.9c1.1-0.6,1.5-2.6,2.3-4c-1.4-0.4-2.7-0.9-4.1-1.3
	c0-0.3,0-0.5,0.1-0.8c1.3,0.1,2.6,0.3,4.4,0.5c-0.4-1.3-0.7-2.1-1-3c4.3-0.5,1-2.7,0.9-4.2c0.6-0.1,1.2-0.1,1.8-0.3
	c0.2,0,0.1-0.6,0.2-0.9c0.9-2.6,1.7-5.3,2.8-7.9c0.1-0.2,2.4,0,2.7,0.6c1.3,2.5,2.3,5.1,3.5,7.9c1.9-1.5,4.7-3.8,7.6-6.1
	c-2.3,2.5-4.7,5-7,7.6c-1.4,1.6-3.1,3.4,0.7,4.1c0.7,1,1.4,2.1,2.1,3.1c-0.7,0.1-1.5,0.2-2.3,0.3c0.7,1.4,1.1,2.8,2,4
	c0.9,1.2,2.2,2.2,3.8,3.7c-2.3,0.7-3.6,1-4.4,1.3c2,3.9,3.8,7.5,5.6,11c-0.7,0.2-1.4,0.5-2.1,0.7c-0.5-1.3-1.1-2.6-1.6-3.8
	c-0.5,0.5-1,1.1-1.4,1.6c-0.2,3.1,0.9,7.3-0.8,9c-3.4,3.6-1.2,5.8,0.3,8.6c0.9,1.5,1.6,3.1,2.4,4.7l0.1-0.1
	c-1.6-1.7-3.2-3.5-4.8-5.2c-1.6,1.4-3.4,3.9-5.1,4c-1.8,0-3.7-2.4-5.8-3.9c-1.9,2.4-4.2,5.3-6.4,8.2c1.9-3.3,3.8-6.6,5.6-9.9
	c0.6-1.1,1.3-2.6,1-3.7c-1.1-3.8-2.5-7.4-4-11.4C456.4,126.4,455.1,126.8,453.8,127.3z M465,112.7c0.7,0,1.3-0.1,2-0.1
	c-0.3-3.1-0.5-6.3-0.8-9.4c-0.6,0.1-1.2,0.1-1.8,0.2C461.9,106.6,461.4,109.7,465,112.7z"/>
<path d="M433.6,152.7c1.3,3,2.5,6,3.8,9.1c-5.5-6.6-11.4-12.9-16.4-19.9c-3.2-4.4-5.6-9.6-2.6-15.3c0.1,3.9,4.1,0.9,5.1,3.3
	c-1.3,1-0.6,5.8-5.5,2.8c1.4,3.1,2.8,6.3,4.7,10.8c0.5-2.6,0.6-3.7,0.8-4.7c1,0.1,2,0.3,2.9,0.4c0.1,1.5,0.1,3,0.2,4.6
	c-1.2,0-2,0-2.8,0c-0.2,0.4-0.3,0.8-0.5,1.2c1.9,1,3.7,2,5.6,3.1C428.9,151.1,429.8,153.4,433.6,152.7z"/>
<path d="M439.3,161.7c1.2-1.1,2.4-2.3,3.9-3.7c-1.5,0.5-2.7,1.1-3.9,1.1c-0.6,0-1.4-0.7-1.8-1.4c-0.3-0.4-0.2-1.5,0.2-1.7
	c0.6-0.4,1.4-0.4,2.2-0.5c1.5-0.2,3.1-0.2,4.6-0.5c1.6-0.3,3.2-0.8,4.8-1.2c0.2,0.4,0.4,0.9,0.6,1.3c-0.7,1.2-1.3,2.4-2.4,4.2
	c1.4-0.6,2.5-0.7,2.9-1.2c1.4-2.3,2.6-4.8,3.9-7.2c-0.8,2.3-1.3,4.8-2.5,6.9c-0.6,1.1-2.3,1.9-3.7,2.2
	C445.3,160.9,442.3,161.2,439.3,161.7z"/>
<path d="M506.3,148.1c-3.5,4.4-7,8.9-10.7,13.3c-0.4,0.5-1.8,0.4-2.7,0.3c-3-0.4-6.1-0.8-9.1-1.4c-1.1-0.2-2.7-0.8-3.1-1.7
	c-1.6-3.4-2.9-6.9-4.3-10.4c0,0-0.1,0.1-0.1,0.1c1.5,2.5,3.6,4.7,4.5,7.4c1.5,4.2,3.1,4.8,6,1.4c0,0-0.1,0-0.1,0
	c2.6,1.4,5.2,2.7,8.1,4.3c1.8-3.2,3.1-5.7,4.5-8.2c1.5-1.6,3-3.2,4.5-4.7c0.9,0,1.7,0,2.6,0L506.3,148.1z"/>
<path d="M517.4,75.1c-2.7,0.5-5.4,1.1-8.1,1.6c8.5-5.2,17.9-5.3,27.3-4.3c1,0.1,1.9,1.6,2.9,2.4c-0.9-0.2-1.8-0.4-2.7-0.6
	c-6.6-1.8-13.2-1.7-19.6,1L517.4,75.1z"/>
<path d="M506.5,77.1c-0.9,0.9-1.8,1.9-2.8,2.8c-0.8,0-1.5,0.1-2.3,0.1c-5.1,2.5-10.1,5.1-15.2,7.6c3.2-2.3,6.3-4.9,9.7-6.8
	C499.3,79.2,503,78.4,506.5,77.1z"/>
<path d="M499.4,87.1c0.3,2.5,0.6,5,0.8,7.5c1.6-0.4,3.2-0.7,4.8-1.1c0.8-0.2,1.6-0.3,2.4-0.4c-2.1,2.2-4.3,4.3-6.4,6.5
	c0.2,0.5,0.4,1,0.6,1.5c2.6-0.1,5.2-0.3,8.2-0.5c1,2.3,3.7,5.5,3.1,7.6c-0.7,2.3-3.8,5.1-7.7,4c0.8-2.7,3.7-5.7-1.1-7.7
	c-5.5-2.3-10-1.8-10.7,1.9c-0.4,2.1,1.2,4.5,2,6.8c-2.9-0.7-5.7-1.4-7.9-1.9c0.9-3.2,3.2-5.7,0.2-8.9c7.2-1.5,6.8-8.6,9.7-14.5
	c-2.5,0.2-4.2,0.4-5.3,0.5c0.2,3.6,0.3,6.7,0.5,10.7c-4.8-2-7-6.7-11.5-3.9c1.9-2,3.5-4.4,5.8-5.9C490.7,86.9,494.7,84.7,499.4,87.1
	z"/>
<path d="M492.4,154.2c0.9,1.2,1.7,2.5,2.6,3.7c-1.5,0-3.1,0.2-4.6,0.1c-1.3-0.1-2.5-0.7-3.7-1c0,0,0.1,0,0.1,0
	c-1.4-0.1-2.8-0.2-5-0.3c2.4-3.6,4.1-3.4,6.4-1.4C489.5,156.4,492.3,159.5,492.4,154.2z"/>
<g>
	<path class="st1" d="M1.9,55.6c1.2-0.2,2.1-0.3,2.8-0.4s1.2-0.1,1.3-0.1c0.3,0,0.5,0.2,0.5,0.5v13.5c0,0.2-0.1,0.4-0.4,0.4
		c-0.2,0-0.3,0.1-0.5,0.1c-0.2,0-0.4,0-0.5,0.1c-0.2,0-0.3,0-0.5,0c-0.1,0-0.3,0-0.3,0c-0.2,0-0.4-0.1-0.4-0.4V57.8
		c0-0.3,0-0.6,0-0.8s-0.1-0.4-0.1-0.5s-0.2-0.2-0.3-0.2s-0.3-0.1-0.5-0.1c-0.1,0-0.3,0-0.4,0s-0.3,0-0.5,0L1.9,55.6z"/>
	<path class="st1" d="M13.1,68.1c0,0.1,0,0.2,0,0.2c0,0.1,0,0.1,0,0.2c0,0.9,0.2,1.5,0.7,2s1.1,0.7,1.9,0.7c0.6,0,1.1-0.1,1.5-0.3
		s0.8-0.4,1.1-0.7c0.3-0.3,0.5-0.7,0.7-1.1c0.2-0.4,0.2-0.9,0.2-1.5c0-0.8-0.1-1.4-0.4-1.9s-0.6-0.9-1-1.2s-0.9-0.5-1.5-0.6
		c-0.6-0.1-1.2-0.2-1.9-0.2h-0.4L14,62.8h0.2c1.5,0,2.6-0.3,3.4-0.8s1.1-1.4,1.1-2.7c0-0.5-0.1-1-0.2-1.4s-0.4-0.7-0.6-1
		s-0.6-0.5-1-0.6s-0.8-0.2-1.2-0.2c-0.4,0-0.9,0.1-1.3,0.2s-0.7,0.3-1,0.6s-0.6,0.6-0.8,1s-0.4,0.9-0.4,1.5l-0.7-0.1
		c0-0.1,0-0.2,0-0.5s0-0.6,0-1s0-0.7,0.1-1.1s0-0.7,0.1-0.9c0-0.1,0.1-0.3,0.3-0.3c0.6-0.2,1.2-0.3,1.9-0.5s1.5-0.2,2.3-0.2
		c0.7,0,1.4,0.1,2,0.2s1.2,0.3,1.8,0.6s0.9,0.7,1.2,1.2s0.5,1.1,0.5,1.9c0,0.4-0.1,0.9-0.2,1.3s-0.4,0.8-0.7,1.2s-0.6,0.7-1.1,1
		s-0.9,0.5-1.5,0.7v0.1c0.2,0,0.4,0.1,0.7,0.2s0.6,0.2,0.9,0.3s0.6,0.3,0.9,0.5s0.6,0.5,0.8,0.8s0.4,0.7,0.6,1.1s0.2,0.9,0.2,1.4
		c0,0.6-0.1,1.2-0.3,1.7s-0.4,0.9-0.7,1.3s-0.7,0.7-1.1,1c-0.4,0.3-0.9,0.5-1.4,0.7s-1,0.3-1.5,0.4s-1.1,0.1-1.6,0.1
		c-0.7,0-1.3-0.1-1.9-0.2c-0.6-0.1-1.2-0.3-1.6-0.6s-0.9-0.6-1.1-1c-0.3-0.4-0.4-0.8-0.4-1.3c0-0.3,0.1-0.5,0.2-0.7s0.3-0.4,0.4-0.5
		c0.2-0.1,0.4-0.2,0.6-0.3c0.2-0.1,0.5-0.1,0.7-0.1c0.1,0,0.2,0,0.4,0C12.8,68.1,13,68.1,13.1,68.1z"/>
</g>
<g>
	<g>
		<path class="st1" d="M31.8,76.2l1.7,5.6c0.1,0.4,0.2,0.8,0.2,0.8h0c0,0,0-0.4,0.2-0.8l1.6-5.6h1.2l-2.2,7.6H33l-1.5-4.9
			c-0.1-0.5-0.3-1.1-0.3-1.1h0c0,0-0.1,0.6-0.3,1.1l-1.5,4.9h-1.4L26,76.2h1.2l1.5,5.6c0.1,0.4,0.2,0.8,0.2,0.8h0
			c0,0,0.1-0.4,0.2-0.8l1.7-5.6H31.8z"/>
		<path class="st1" d="M43,81.6h-3.2L39,83.8h-1.2l3-7.6h1.2l3,7.6h-1.2L43,81.6z M41.4,77.2c0,0-0.2,0.7-0.3,1.1l-0.9,2.4h2.6
			l-0.9-2.4C41.6,77.9,41.4,77.2,41.4,77.2L41.4,77.2z"/>
		<path class="st1" d="M48.5,80.6l-2.8-4.4H47l1.6,2.5c0.3,0.4,0.5,1,0.5,1h0c0,0,0.3-0.5,0.5-1l1.5-2.5h1.3l-2.8,4.4v3.2h-1.2V80.6
			z"/>
		<path class="st1" d="M54.8,82.1c0,0,0.9,0.8,2.2,0.8c0.8,0,1.5-0.4,1.5-1.1c0-1.7-4.1-1.3-4.1-3.6c0-1.2,1.1-2.1,2.7-2.1
			c1.6,0,2.4,0.8,2.4,0.8l-0.5,0.9c0,0-0.8-0.7-1.9-0.7c-0.9,0-1.5,0.5-1.5,1.1c0,1.6,4.1,1.2,4.1,3.6c0,1.2-1,2.2-2.7,2.2
			c-1.8,0-2.8-1-2.8-1L54.8,82.1z"/>
	</g>
</g>
</svg>
