<?xml version="1.0" encoding="utf-8"?>
<!-- Generator: Adobe Illustrator 21.1.0, SVG Export Plug-In . SVG Version: 6.00 Build 0)  -->
<svg version="1.1" id="Layer_1" xmlns="http://www.w3.org/2000/svg" xmlns:xlink="http://www.w3.org/1999/xlink" x="0px" y="0px"
	 viewBox="0 0 16 16" style="enable-background:new 0 0 16 16;" xml:space="preserve">
<style type="text/css">
	.st0{fill:#F89E1B;}
	.st1{fill:#333333;}
	.st2{fill:#812D1A;}
	.st3{fill:none;}
	.st4{fill:#606060;}
</style>
<g>
	<path class="st0" d="M22.2,6.2C21.8,7.8,21,9,19.8,10.4c-0.6,0.7-1.3,1.4-2,2c-0.6,0.5-1.5,1.3-2.4,1.4c0.3-0.6,1-1,1.4-1.5
		c0.5-0.6,0.9-1.2,1.3-1.8c0.7-1.2,1.2-2.8,1.5-4.1c0.3-1.1,0.4-2-0.3-2.9c0.3,1.4,0.1,2-0.2,3c-0.3,0.9-0.8,1.8-1.2,2.7
		c-0.4,0.8-1,1.6-1.6,2.3c-0.5,0.6-1.2,1.4-2,1.7c-0.1-0.4,0.2-0.8,0.5-1.1c0.2-0.4,0.4-0.8,0.6-1.2c0.4-0.8,0.7-1.6,0.9-2.4
		c0.3-1.1,0.3-2.3,0.2-3.4c-0.1-1.1-0.4-2.3-1-3.2c-0.2-0.3-0.4-0.3-0.6-0.5c0.4,0.3,0.5,0.7,0.6,1.1c0.2,0.4,0.3,0.9,0.4,1.3
		c0.2,0.9,0.2,1.9,0.1,2.8c-0.1,1.7-0.9,3.6-2,5.1c-0.2,0.3-0.5,0.7-0.8,0.9c-0.1,0-0.1,0.1-0.2,0.1c-0.4,0-0.3-1.4-0.4-1.7
		c-0.3-1.8-0.3-2.6-0.7-4.4c-0.2-1.3-0.6-2.6-1.1-3.8c-0.1-0.1-0.5-1.2-0.6-1.3c-0.1-0.1-0.1-0.3-0.3-0.3c0.9,3.1,1.5,6.4,1.7,9.7
		c0,0.5,0.1,1.1,0.1,1.6c0,0.5,0.1,0.9-0.2,1.3c-0.4,0-0.7-0.3-0.9-0.4c-0.4-0.2-0.7-0.4-1.1-0.7c-1.6-1.1-3-2.5-4.2-4.1
		c-0.7-1-1.3-2.1-1.8-3.3C3.6,5.1,3.5,4.8,3.4,4.6C3.3,4.4,3.1,4.1,3.1,3.9c-0.1,0.4,0.1,1,0.2,1.4c0.4,1.8,1.3,3.6,2.4,5.1
		c0.6,0.8,1.2,1.5,2,2.2c0.4,0.3,0.7,0.6,1.1,0.9c0.3,0.2,0.8,0.7,1.2,0.8c-1.4-0.3-2.7-0.8-4-1.3c-1.9-0.8-3.7-1.7-5.3-2.8
		C-0.1,9.6-0.9,9-1.7,8.4c-0.7-0.6-1.2-1.3-2-1.8c0.3,0.6,0.7,1.1,1.2,1.6c1.3,1.4,2.9,2.6,4.6,3.7c0.9,0.5,1.8,1,2.7,1.5
		c0.5,0.2,0.9,0.5,1.4,0.7c0.3,0.2,1,0.6,1.3,0.6C3.4,14.5-0.7,13.6-4.3,12c3.7,2.6,8.8,3.2,13.6,3.6C4.7,17-0.2,16.2-4.9,15.4
		c4.6,1.9,10.1,2.2,15.3,0.8c0.5-0.1,1.1-0.3,1.6-0.2c0.2-0.1,0.4-0.1,0.6-0.1c0.4-0.2,0.9-0.4,1.3-0.6c0,0,0,0,0,0
		c0.1-0.3,0.5-0.4,0.8-0.5c2.4-0.7,4.7-2.1,6.2-4c1.5-1.9,2.1-4.3,1.5-6.4C22.3,4.8,22.3,5.7,22.2,6.2z"/>
	<path class="st0" d="M13.1,7.3c1,2.1,1.7,4.3,1.4,6.5c-1.2-2.7-2.4-5.5-4.7-7.7C9.6,6,9.4,5.8,9.2,5.7c1.9,2.1,3.2,4.5,4.1,7
		c-0.1-0.3-0.6-0.6-0.8-0.8c-0.3-0.3-0.6-0.6-0.9-0.9c-0.6-0.6-1.2-1.1-1.9-1.7C8.4,8.2,7,7.2,5.5,6.4C4.9,6.1,4.4,5.9,3.8,5.7
		c0.6,0.5,1.4,0.8,2,1.2c0.8,0.5,1.5,1,2.2,1.5c1.3,1,2.5,2.1,3.5,3.3c0.7,0.8,1.4,1.7,1.9,2.5c-0.2-0.3-0.7-0.5-1-0.7
		c-0.3-0.2-0.7-0.5-1.1-0.7c-0.7-0.4-1.5-0.8-2.3-1.2c-1.6-0.7-3.4-1.1-5.1-1.3c-0.4,0-0.9-0.1-1.3-0.1c0.2,0,0.5,0.1,0.7,0.1
		c0.3,0.1,0.6,0.1,0.8,0.2c1.1,0.2,2.3,0.6,3.3,1c1.6,0.6,3.2,1.5,4.5,2.5c0.3,0.2,0.6,0.4,0.8,0.7c0.2,0.2,0.5,0.4,0.6,0.6
		c-0.3,0.2-0.8,0.2-1.2,0.2c-0.5,0-1,0-1.5,0c-3.1,0-6.1-0.2-9.2-0.6c0,0.1,0.2,0.1,0.3,0.2c0.1,0.1,1.2,0.3,1.3,0.3
		c1.2,0.2,2.5,0.4,3.7,0.5c1.7,0.1,2.4,0.1,4.2,0.2c0.2,0,1.5-0.1,1.6,0.1c0,0,0,0.1-0.1,0.1c-0.2,0.2-0.4,0.4-0.7,0.6
		c-1.2,0.8-2.8,1.4-4.3,1.6c-0.9,0.1-1.7,0.1-2.6,0.1c-0.4,0-0.9-0.1-1.3-0.2c-0.4-0.1-0.8-0.1-1.1-0.4c0.2,0.2,0.3,0.3,0.6,0.4
		C4,18.9,5.1,19,6.1,19c1,0,2.1-0.1,3.1-0.3c0.7-0.2,1.4-0.4,2.1-0.7c0.3-0.1,0.6-0.3,0.9-0.5c0.3-0.2,0.5-0.4,0.9-0.4
		c-0.1,0.6-0.8,1-1.2,1.4c-0.5,0.5-1.1,0.8-1.8,1.2c-0.7,0.4-1.5,0.7-2.3,1C7,21,6.5,21.2,5.2,21c0.9,0.4,1.7,0.2,2.7,0
		c1.2-0.3,2.5-0.7,3.5-1.2c0.5-0.3,1-0.6,1.4-0.9c0.4-0.3,0.7-0.8,1.2-1c0,0.6-0.5,1.2-0.9,1.6c-0.4,0.5-0.9,1-1.4,1.4
		c-1.1,0.9-1.9,1.5-3.4,1.8c-0.4,0.1-1.2,0.1-1.6,0.2c2,0.3,4.1-0.2,5.5-1.3c1.4-1.1,2.3-2.7,2.5-4.3c0.1-0.5,0.6-0.9,0.6-1.5
		c0-0.5-0.1-1-0.1-1.4c0.2-2.2-0.3-4.5-1.4-6.7C13.6,7.6,13.3,7.4,13.1,7.3z"/>
	<path class="st1" d="M16.8,5.2c0.6,1.9,0.5,3.3,0.2,5c-0.1,0.9-0.3,1.7-0.6,2.4c-0.3,0.6-0.6,1.5-1.3,1.8c-0.1-0.7,0.3-1.3,0.4-1.9
		c0.1-0.7,0.1-1.4,0.1-2.2c0-1.5-0.5-3.3-1-4.8c-0.4-1.2-0.8-2.4-1.8-3.3c1.1,1.5,1.2,2.2,1.5,3.4c0.3,1.1,0.4,2.2,0.4,3.2
		c0.1,1,0,1.9-0.1,2.7c-0.1,0.7-0.2,1.7-0.8,2.1c-0.3-0.5-0.2-0.9-0.2-1.3c0-0.4,0-0.9-0.1-1.4c-0.1-0.9-0.3-1.9-0.6-2.8
		c-0.4-1.3-1-2.6-1.7-3.9c-0.7-1.2-1.6-2.6-2.6-3.6C8.1,0.4,8,0.3,7.6,0.2c0.5,0.3,0.8,0.7,1.2,1.2c0.4,0.5,0.8,1,1.1,1.5
		c0.7,1,1.2,2.1,1.7,3.2c0.9,2,1.3,4.2,1.2,6c0,0.4-0.1,0.8-0.2,1.1c0,0.1-0.1,0.1-0.1,0.1c-0.3,0.1-1.1-1.6-1.2-1.9
		c-1.3-2.1-1.7-2.9-3.1-5C7.2,5,6.1,3.5,5,2.2C4.9,2,3.9,0.8,3.8,0.7C3.6,0.6,3.5,0.3,3.4,0.4c2.6,3.5,4.9,7.2,6.9,11
		c0.3,0.6,0.7,1.2,1,1.8c0.3,0.5,0.6,1.1,0.6,1.6c-0.3,0-0.7-0.3-1.1-0.4c-0.4-0.2-0.9-0.5-1.3-0.7C7.4,12.5,5.4,11,3.5,9.3
		C2.3,8.2,1.2,7,0.1,5.7c-0.3-0.3-0.5-0.6-0.8-1C-0.8,4.5-1.1,4.2-1.2,4C-1,4.4-0.6,5-0.2,5.5c1.4,2.1,3.1,4,5,5.7
		c0.9,0.8,1.9,1.6,2.9,2.3c0.5,0.4,1,0.7,1.5,1c0.4,0.2,1.1,0.7,1.5,0.8c-1.4-0.3-2.8-0.7-4.2-1.2c-2.1-0.7-4.2-1.7-6.2-2.8
		c-1.1-0.6-2.2-1.2-3.2-1.9c-0.9-0.6-1.8-1.4-2.7-1.9c0.6,0.6,1.3,1.2,1.9,1.7c1.9,1.6,4,2.8,6.1,3.9c1.1,0.5,2.1,1,3.2,1.5
		c0.5,0.2,1.1,0.5,1.6,0.7C7.5,15.5,8.3,16,8.7,16C5,16.1,0.9,15.4-3.2,13.8c4.7,2.7,9.5,3,14,3.2c-3.4,1.9-8.1,1.3-12.7,0.7
		c5.1,1.8,10.1,1.8,13.9-0.2c0.4-0.2,0.8-0.4,1.3-0.4c0.1-0.1,0.3-0.1,0.4-0.1c0.3-0.2,0.6-0.5,0.8-0.7c0,0,0,0,0-0.1
		c-0.1-0.3,0.2-0.5,0.4-0.7c1.8-1,3-2.7,3.3-5c0.3-2.3-0.5-5.1-2.3-7.4C16.1,3.6,16.6,4.7,16.8,5.2z"/>
	<path class="st1" d="M12.4,14.5c0.1-0.7-0.4-1.2-0.7-1.7c-0.4-0.6-0.8-1.2-1.2-1.8C7.9,7.2,5,3.7,1.7,0.4C1.8,0.3,2,0.5,2.2,0.6
		c0.2,0.1,1.4,1.1,1.6,1.3c1.4,1.2,2.8,2.5,3.9,3.9c1.7,2,2.2,2.8,3.9,4.8c0.2,0.2,1.2,2,1.6,1.8c0.1,0,0.1-0.1,0.2-0.2
		c0.2-0.5,0.2-1,0.3-1.5c0.1-2.3-0.3-4.9-1.5-7c-0.6-1.1-1.3-2.3-2.2-3.3C9.5-0.1,9-0.5,8.5-1C8.1-1.3,7.7-1.8,7.1-1.9
		c0.4,0.1,0.7,0,1.1,0.3c1.3,0.8,2.5,2.1,3.4,3.2c0.9,1.2,1.7,2.6,2.2,4.1c0.4,1.1,0.6,2.2,0.8,3.3c0.1,0.6,0.1,1.1,0.1,1.7
		c0,0.5-0.1,1.1,0.3,1.6c0.7-0.8,0.8-2.1,1-3.1C16.1,8,16.1,6.9,16,5.7c-0.1-1.3-0.2-2.6-0.6-3.8c-0.3-1.4-0.5-2.1-1.9-3.6
		c1.4,0.6,1.9,1.9,2.3,3.2c0.6,1.8,1.2,3.8,1.2,5.6c0,0.9,0,1.9-0.1,2.8c-0.1,0.8-0.6,1.7-0.5,2.5c0.8-0.6,1.3-1.9,1.6-2.9
		c0.4-1.1,0.7-2.2,0.8-3.3c0.3-2.2,0.5-4-0.3-6.1c-0.2-0.5-0.8-1.6-1.1-2.1c2.2,2.1,3.2,5.2,2.9,8.2c-0.3,3-1.9,5.7-4.2,7.8
		c-0.3,0.3-0.6,0.6-0.5,1c0.1,0.2,0.2,0.3,0.4,0.4c6.6,5.5,12.4,11.7,17.4,18.6c0.2,0.3,0.4,0.8,0.1,1c-0.1,0.1-0.4,0.1-0.5,0.1
		c-2.1-0.2-3.9-1.7-5-3.5c-1.1-1.8-1.7-3.8-2.7-5.6c-2-3.6-5.2-6.2-8.6-8.6c-0.5-0.4-1.1-0.7-1.7-0.8c-1,0-1.7,0.7-2.4,1.3
		C7.9,22,1.5,24.5-5,24.6c5.8-1.4,11.8-2.9,16.1-6.9c-5.8,1.9-11.9,3.8-17.8,2.6c5.2,0.1,10.3-0.9,15.1-2.9
		c-0.4,0.2-1.5-0.1-1.9-0.1c-0.7,0-1.4-0.1-2-0.1c-1.4-0.1-2.7-0.2-4.1-0.4c-2.7-0.3-5.3-0.9-7.7-2c-0.8-0.4-1.7-0.8-2.5-1.3
		c1.2,0.3,2.3,0.8,3.5,1.1c1.3,0.4,2.7,0.7,4.1,0.9c2.6,0.4,5.3,0.6,7.9,0.6c1.8,0,3.6-0.2,5.4-0.5c-0.5,0.1-1.4-0.2-1.9-0.3
		c-0.7-0.1-1.3-0.3-1.9-0.5c-1.3-0.4-2.5-0.9-3.7-1.5C1,12.1-1.1,10.5-2.9,8.6c-0.4-0.4-1-1-1.2-1.5C-4,7.4-3.7,7.6-3.4,7.8
		c0.3,0.3,0.6,0.6,1,0.8c1.3,1.1,2.8,2.1,4.3,2.9c2.3,1.3,4.9,2.2,7.5,2.7c0.6,0.1,1.1,0.2,1.7,0.3C11.5,14.5,12.1,14.7,12.4,14.5"
		/>
	<path class="st2" d="M27.2,27.3c-1.1-0.2,0.7,3.6,0.9,3.9c0.5,0.8,1.3,1.5,2,2c0.4,0.3,1.9,1.3,2.5,0.8c0.4-0.4-0.3-1.1-0.6-1.4
		c-0.8-0.9-1.6-1.9-2.5-2.8C28.9,29.1,28,27.7,27.2,27.3"/>
	<path class="st3" d="M5.8,5.1C4.1,3.6,2.3,2,0.1,1.5C1.7,3,3.4,4.3,5.3,5.5c0.1,0.1,0.3,0.1,0.5,0C5.9,5.5,5.9,5.2,5.8,5.1z"/>
	<path class="st0" d="M29.7,31.7c0.9,1.1,2,1.7,2,1.7c0,0-0.7-0.9-1.6-2.1c-0.9-1.1-2.4-2.8-2.4-2.7C27.6,28.6,28.7,30.6,29.7,31.7z
		"/>
</g>
<rect x="-18" y="-8" class="st4" width="18" height="35"/>
<rect x="-6" y="-13" class="st4" width="27" height="13"/>
<rect x="16" y="-4" class="st4" width="26" height="40"/>
<rect x="-3" y="16" class="st4" width="26" height="20"/>
</svg>
