<?xml version="1.0" encoding="utf-8"?>
<!-- Generator: Adobe Illustrator 21.0.1, SVG Export Plug-In . SVG Version: 6.00 Build 0)  -->
<svg version="1.1" id="Layer_1" xmlns="http://www.w3.org/2000/svg" xmlns:xlink="http://www.w3.org/1999/xlink" x="0px" y="0px"
	 viewBox="0 0 82 82" style="enable-background:new 0 0 82 82;" xml:space="preserve">
<style type="text/css">
	.st0{fill:#333333;}
	.st1{clip-path:url(#SVGID_2_);}
	.st2{fill:#FFFFFF;}
	.st3{fill:#822E1A;}
	.st4{fill:#F9A01B;}
</style>
<circle class="st0" cx="41" cy="41.2" r="40"/>
<g>
	<defs>
		<circle id="SVGID_1_" cx="41" cy="41.6" r="39.8"/>
	</defs>
	<clipPath id="SVGID_2_">
		<use xlink:href="#SVGID_1_"  style="overflow:visible;"/>
	</clipPath>
	<g class="st1">
		<g>
			<path class="st2" d="M60.6,85.5h-1.3V61.7c-4.2,0.9-8.4,1.3-12.2,0.4l0.3-1.3c3.7,0.8,7.9,0.5,12-0.5V45.1
				c-13.8,0.7-24.5-15.9-25-16.6l1.1-0.7c0.1,0.2,10.8,16.7,23.9,16V33.1c-10.1,0.4-18-10.9-18.3-11.4l1.1-0.7
				c0.1,0.1,7.9,11.2,17.3,10.9v-12c-1.3-0.3-4.6-1.1-8-2.6c-4.5-2.1-7.4-4.7-8.6-7.7L43.9,9c1,2.7,3.7,5,7.8,6.9
				c1.2-0.2,8.2-2,7.4-13l1.3-0.1c0.7,9.5-4.1,12.7-6.9,13.8c3.5,1.4,6.5,2,6.6,2l0.5,0.1v13.1c2.1,0.2,9.8,0.3,15.5-10.8l1.1,0.6
				C71.3,33,63.1,33.3,60.6,33.1v10.6l0,0v6.4c3.3-0.6,18.3-4.4,20.5-22l1.3,0.2C80,46.9,63.5,50.9,60.6,51.4v8.7
				c10.8-2.9,20.8-9.7,21-9.8l0.7,1.1c-0.6,0.4-10.7,7.2-21.7,10.1V85.5z"/>
		</g>
		<path class="st3" d="M42.8,37.3c0,0-2.9,2.9-5.6-0.1C37.3,37.2,38.1,35.1,42.8,37.3"/>
		<path class="st3" d="M81.8,29c0,0-0.6-2.7,2.3-2.9C84.1,26.1,85.1,27.4,81.8,29"/>
		<path class="st3" d="M81.6,29c0,0,0.6-2.7-2.3-2.9C79.3,26.1,78.3,27.4,81.6,29"/>
		<path class="st3" d="M43.3,9.7c0,0-0.6-2.7,2.3-2.9C45.7,6.7,46.7,8.1,43.3,9.7"/>
		<path class="st3" d="M43.1,9.7c0,0,0.6-2.7-2.3-2.9C40.8,6.7,39.8,8.1,43.1,9.7"/>
		<path class="st3" d="M60.1,3.3c0,0-0.6-2.7,2.3-2.9C62.4,0.4,63.4,1.7,60.1,3.3"/>
		<path class="st3" d="M59.8,3.3c0,0,0.6-2.7-2.3-2.9C57.5,0.4,56.5,1.7,59.8,3.3"/>
		<path class="st3" d="M34.8,27.9c0,0-2.3-1.8-0.1-3.6C34.7,24.3,36.4,24.8,34.8,27.9"/>
		<path class="st3" d="M34.6,28c0,0-1.3-2.5-3.8-1C30.8,27,30.9,28.6,34.6,28"/>
		<path class="st3" d="M74.6,42.7c0,0-4.2-1.7-1.9-5.2C72.7,37.5,75.4,37.6,74.6,42.7"/>
		<path class="st4" d="M74.3,42.6l-1.6-5.1c0,0,2.8,0.2,1.9,5.2L74.3,42.6z"/>
		<path class="st3" d="M65.3,49.3c0,0-3.2-3,0.3-5.5C65.6,43.9,68.1,44.8,65.3,49.3"/>
		<path class="st4" d="M65,49.1l0.5-5.3c0,0,2.5,1.1-0.3,5.5L65,49.1z"/>
		<path class="st3" d="M53.9,61.8c0,0-4.2-1.7-1.9-5.2C51.9,56.6,54.6,56.7,53.9,61.8"/>
		<path class="st4" d="M53.6,61.7l-1.6-5.1c0,0,2.8,0.2,1.9,5.2L53.6,61.7z"/>
		<path class="st3" d="M48.3,62.1c0,0-4.4,0.9-4.9-3.2C43.4,58.9,45.6,57.5,48.3,62.1"/>
		<path class="st4" d="M47.9,62.1l-4.6-3.2c0,0,2.4-1.3,4.9,3.2L47.9,62.1z"/>
		<path class="st3" d="M46.2,40.4c0,0-3,3.2-6,0.1C40.2,40.6,41.1,38.2,46.2,40.4"/>
		<path class="st4" d="M46,40.7l-5.7-0.1c0,0,1-2.4,6-0.1L46,40.7z"/>
		<path class="st3" d="M50.7,42.9c0,0-1.6,3.9-5.6,2C45.1,44.9,45,42.4,50.7,42.9"/>
		<path class="st4" d="M50.5,43.2l-5.5,1.7c0,0,0.1-2.5,5.6-2L50.5,43.2z"/>
		<path class="st3" d="M72.6,56.3c0,0,3,3.2,6,0.1C78.6,56.4,77.7,54.1,72.6,56.3"/>
		<path class="st4" d="M72.9,56.5l5.7-0.1c0,0-1-2.4-6-0.1L72.9,56.5z"/>
		<path class="st3" d="M68,58.8c0,0,1.6,3.9,5.6,2C73.6,60.7,73.6,58.3,68,58.8"/>
		<path class="st4" d="M68.1,59.1l5.5,1.7c0,0-0.1-2.5-5.6-2L68.1,59.1z"/>
		<path class="st3" d="M72,28.2c0,0,2.9,2.9,5.6-0.1C77.6,28.2,76.7,26,72,28.2"/>
		<path class="st3" d="M62.4,60.3c0,0,1.4,3.7,5.1,2C67.5,62.4,67.6,60.1,62.4,60.3"/>
		<path class="st3" d="M65.2,31.5c0,0,3.6-2,1.1-5C66.3,26.4,63.8,26.8,65.2,31.5"/>
		<path class="st3" d="M76.5,22c0,0,3.4-1.9,1-4.6C77.5,17.4,75.2,17.7,76.5,22"/>
		<path class="st3" d="M81.6,51.3c0,0,3.8-0.8,2.5-4.1C84.1,47.2,81.8,46.8,81.6,51.3"/>
		<path class="st3" d="M42,22c0,0,1.4-3.4-2.3-4.2C39.7,17.8,38.1,19.4,42,22"/>
		<path class="st3" d="M67.8,31.6c0,0,3,3.2,6,0.1C73.8,31.7,72.9,29.3,67.8,31.6"/>
		<path class="st4" d="M68,31.8l5.7-0.1c0,0-1-2.4-6-0.1L68,31.8z"/>
		<path class="st3" d="M62.5,33.1c0,0,1.2,4,5.3,2.5C67.8,35.5,68.1,33.1,62.5,33.1"/>
		<path class="st4" d="M62.6,33.4l5.2,2.2c0,0,0.2-2.5-5.3-2.5L62.6,33.4z"/>
		<path class="st3" d="M60,19.4c0,0,4.4,1,4.9-3.1C64.9,16.3,62.7,14.9,60,19.4"/>
		<path class="st4" d="M60.3,19.5l4.6-3.2c0,0-2.3-1.4-4.9,3.1L60.3,19.5z"/>
		<path class="st3" d="M42.2,36.3c0,0,2.7-3-0.9-5.1C41.3,31.2,39.1,32.3,42.2,36.3"/>
		<path class="st3" d="M46.5,39.9c0,0,3-3.2-0.7-5.5C45.7,34.5,43.3,35.6,46.5,39.9"/>
		<path class="st4" d="M46.7,39.7l-0.9-5.2c0,0-2.4,1.3,0.7,5.5L46.7,39.7z"/>
		<path class="st3" d="M50.6,42.6c0,0,4-2.1,1.3-5.4C51.9,37.2,49.3,37.5,50.6,42.6"/>
		<path class="st4" d="M50.9,42.4l1-5.2c0,0-2.7,0.5-1.3,5.4L50.9,42.4z"/>
		<path class="st3" d="M46.5,26.3c0,0,3-3.2-0.7-5.5C45.7,20.9,43.3,22,46.5,26.3"/>
		<path class="st4" d="M46.7,26.1l-0.9-5.2c0,0-2.4,1.3,0.7,5.5L46.7,26.1z"/>
		<path class="st3" d="M48,14.3c0,0,1.5-1.6-0.4-2.8C47.6,11.5,46.4,12,48,14.3"/>
		<path class="st4" d="M48.1,14.2l-0.5-2.7c0,0-1.2,0.7,0.4,2.8L48.1,14.2z"/>
		<path class="st3" d="M47.8,14.5c0,0-1.5-1.7-3.1-0.2C44.7,14.3,45.1,15.5,47.8,14.5"/>
		<path class="st4" d="M47.6,14.4l-3-0.1c0,0,0.5,1.2,3.1,0.2L47.6,14.4z"/>
		<path class="st3" d="M61.8,10.9c0,0-1.7-1.5-3.1,0.3C58.7,11.2,59.3,12.4,61.8,10.9"/>
		<path class="st4" d="M61.7,10.8l-2.9,0.4c0,0,0.7,1.2,3.1-0.3L61.7,10.8z"/>
		<path class="st3" d="M62.8,7.5c0,0-1.7-1.5-3.1,0.3C59.7,7.8,60.3,8.9,62.8,7.5"/>
		<path class="st4" d="M62.7,7.4l-2.9,0.4c0,0,0.7,1.2,3.1-0.3L62.7,7.4z"/>
		<path class="st3" d="M50.6,29c0,0,4-2.1,1.3-5.4C51.9,23.6,49.3,23.9,50.6,29"/>
		<path class="st4" d="M50.9,28.8l1-5.2c0,0-2.7,0.5-1.3,5.4L50.9,28.8z"/>
		<path class="st3" d="M77.7,40.3c0,0,2.2-3.7,5.8-1.2C83.6,39.1,83.2,41.6,77.7,40.3"/>
		<path class="st4" d="M77.9,40.1l5.7-1c0,0-0.5,2.5-5.8,1.2L77.9,40.1z"/>
	</g>
</g>
<g>
	<g>
		<path class="st2" d="M19.2,55.9h-0.4v-8.2c-1.4,0.3-2.9,0.4-4.2,0.1l0.1-0.4c1.3,0.3,2.7,0.2,4.1-0.2v-5.3
			c-4.8,0.3-8.5-5.5-8.7-5.8l0.4-0.2c0,0.1,3.8,5.8,8.3,5.6v-3.7c-3.5,0.1-6.2-3.8-6.4-4l0.4-0.3c0,0,2.7,3.9,6,3.8v-4.1
			c-0.4-0.1-1.6-0.4-2.8-0.9c-1.6-0.7-2.6-1.6-3-2.7l0.4-0.2c0.4,0.9,1.3,1.7,2.7,2.4c0.4-0.1,2.8-0.7,2.6-4.5l0.4,0
			c0.2,3.3-1.4,4.4-2.4,4.8c1.2,0.5,2.3,0.7,2.3,0.7l0.2,0v4.5c0.7,0.1,3.4,0.1,5.4-3.8l0.4,0.2c-2,4-4.9,4.1-5.8,4v3.7l0,0v2.2
			c1.1-0.2,6.3-1.5,7.1-7.6l0.4,0.1c-0.8,6.5-6.5,7.8-7.5,8v3c3.7-1,7.2-3.4,7.3-3.4l0.3,0.4c-0.2,0.1-3.7,2.5-7.5,3.5V55.9z"/>
	</g>
	<path class="st3" d="M13.1,39.2c0,0-1,1-1.9,0C11.1,39.2,11.4,38.5,13.1,39.2"/>
	<path class="st3" d="M26.6,36.4c0,0-0.2-0.9,0.8-1C27.4,35.3,27.7,35.8,26.6,36.4"/>
	<path class="st3" d="M26.5,36.4c0,0,0.2-0.9-0.8-1C25.7,35.3,25.3,35.8,26.5,36.4"/>
	<path class="st3" d="M13.2,29.6c0,0-0.2-0.9,0.8-1C14,28.6,14.4,29.1,13.2,29.6"/>
	<path class="st3" d="M13.2,29.6c0,0,0.2-0.9-0.8-1C12.4,28.6,12,29.1,13.2,29.6"/>
	<path class="st3" d="M19,27.4c0,0-0.2-0.9,0.8-1C19.8,26.4,20.2,26.9,19,27.4"/>
	<path class="st3" d="M19,27.4c0,0,0.2-0.9-0.8-1C18.1,26.4,17.8,26.9,19,27.4"/>
	<path class="st3" d="M10.3,36c0,0-0.8-0.6,0-1.3C10.2,34.7,10.8,34.9,10.3,36"/>
	<path class="st3" d="M10.2,36c0,0-0.4-0.9-1.3-0.4C8.9,35.6,8.9,36.2,10.2,36"/>
	<path class="st3" d="M24.1,41.1c0,0-1.5-0.6-0.7-1.8C23.4,39.3,24.4,39.3,24.1,41.1"/>
	<path class="st4" d="M24,41.1l-0.6-1.8c0,0,1,0.1,0.7,1.8L24,41.1z"/>
	<path class="st3" d="M20.8,43.4c0,0-1.1-1,0.1-1.9C20.9,41.5,21.8,41.8,20.8,43.4"/>
	<path class="st4" d="M20.8,43.3l0.2-1.8C20.9,41.5,21.8,41.9,20.8,43.3L20.8,43.3z"/>
	<path class="st3" d="M16.9,47.7c0,0-1.5-0.6-0.7-1.8C16.2,45.9,17.1,45.9,16.9,47.7"/>
	<path class="st4" d="M16.8,47.7l-0.6-1.8c0,0,1,0.1,0.7,1.8L16.8,47.7z"/>
	<path class="st3" d="M14.9,47.8c0,0-1.5,0.3-1.7-1.1C13.2,46.7,14,46.2,14.9,47.8"/>
	<path class="st4" d="M14.8,47.8l-1.6-1.1c0,0,0.8-0.5,1.7,1.1L14.8,47.8z"/>
	<path class="st3" d="M14.2,40.3c0,0-1,1.1-2.1,0C12.2,40.4,12.5,39.5,14.2,40.3"/>
	<path class="st4" d="M14.2,40.4l-2,0C12.2,40.4,12.5,39.5,14.2,40.4L14.2,40.4z"/>
	<path class="st3" d="M15.8,41.2c0,0-0.6,1.4-1.9,0.7C13.8,41.9,13.8,41,15.8,41.2"/>
	<path class="st4" d="M15.7,41.3l-1.9,0.6C13.8,41.9,13.9,41,15.7,41.3L15.7,41.3z"/>
	<path class="st3" d="M23.4,45.8c0,0,1,1.1,2.1,0C25.5,45.9,25.2,45,23.4,45.8"/>
	<path class="st4" d="M23.5,45.9l2,0C25.5,45.9,25.1,45,23.5,45.9L23.5,45.9z"/>
	<path class="st3" d="M21.8,46.7c0,0,0.6,1.4,1.9,0.7C23.7,47.4,23.7,46.5,21.8,46.7"/>
	<path class="st4" d="M21.8,46.8l1.9,0.6C23.7,47.4,23.7,46.5,21.8,46.8L21.8,46.8z"/>
	<path class="st3" d="M23.2,36.1c0,0,1,1,1.9,0C25.1,36.1,24.8,35.3,23.2,36.1"/>
	<path class="st3" d="M19.8,47.2c0,0,0.5,1.3,1.8,0.7C21.6,47.9,21.7,47.1,19.8,47.2"/>
	<path class="st3" d="M20.8,37.2c0,0,1.3-0.7,0.4-1.7C21.2,35.5,20.3,35.6,20.8,37.2"/>
	<path class="st3" d="M24.8,33.9c0,0,1.2-0.6,0.3-1.6C25.1,32.3,24.3,32.4,24.8,33.9"/>
	<path class="st3" d="M26.5,44.1c0,0,1.3-0.3,0.9-1.4C27.4,42.6,26.6,42.5,26.5,44.1"/>
	<path class="st3" d="M12.8,33.9c0,0,0.5-1.2-0.8-1.5C12,32.5,11.4,33,12.8,33.9"/>
	<path class="st3" d="M21.7,37.2c0,0,1,1.1,2.1,0C23.8,37.3,23.5,36.5,21.7,37.2"/>
	<path class="st4" d="M21.8,37.3l2,0C23.8,37.3,23.4,36.5,21.8,37.3L21.8,37.3z"/>
	<path class="st3" d="M19.9,37.8c0,0,0.4,1.4,1.9,0.9C21.7,38.6,21.8,37.8,19.9,37.8"/>
	<path class="st4" d="M19.9,37.9l1.8,0.8c0,0,0.1-0.9-1.9-0.9L19.9,37.9z"/>
	<path class="st3" d="M19,33c0,0,1.5,0.3,1.7-1.1C20.7,32,20,31.5,19,33"/>
	<path class="st4" d="M19.1,33.1l1.6-1.1c0,0-0.8-0.5-1.7,1.1L19.1,33.1z"/>
	<path class="st3" d="M12.8,38.9c0,0,0.9-1.1-0.3-1.8C12.5,37.1,11.8,37.5,12.8,38.9"/>
	<path class="st3" d="M14.3,40.1c0,0,1-1.1-0.3-1.9C14.1,38.3,13.2,38.6,14.3,40.1"/>
	<path class="st4" d="M14.4,40.1l-0.3-1.8C14.1,38.3,13.2,38.7,14.4,40.1L14.4,40.1z"/>
	<path class="st3" d="M15.8,41.1c0,0,1.4-0.7,0.4-1.9C16.2,39.2,15.3,39.3,15.8,41.1"/>
	<path class="st4" d="M15.9,41l0.4-1.8C16.2,39.2,15.3,39.4,15.9,41L15.9,41z"/>
	<path class="st3" d="M14.3,35.4c0,0,1-1.1-0.3-1.9C14.1,33.5,13.2,33.9,14.3,35.4"/>
	<path class="st4" d="M14.4,35.3l-0.3-1.8C14.1,33.5,13.2,34,14.4,35.3L14.4,35.3z"/>
	<path class="st3" d="M14.8,31.2c0,0,0.5-0.6-0.1-1C14.7,30.3,14.3,30.5,14.8,31.2"/>
	<path class="st4" d="M14.9,31.2l-0.2-0.9C14.7,30.3,14.3,30.5,14.9,31.2L14.9,31.2z"/>
	<path class="st3" d="M14.8,31.3c0,0-0.5-0.6-1.1-0.1C13.7,31.2,13.8,31.7,14.8,31.3"/>
	<path class="st4" d="M14.7,31.3l-1,0C13.7,31.2,13.9,31.7,14.7,31.3L14.7,31.3z"/>
	<path class="st3" d="M19.6,30.1c0,0-0.6-0.5-1.1,0.1C18.6,30.2,18.8,30.6,19.6,30.1"/>
	<path class="st4" d="M19.6,30l-1,0.1C18.6,30.2,18.8,30.6,19.6,30L19.6,30z"/>
	<path class="st3" d="M20,28.9c0,0-0.6-0.5-1.1,0.1C18.9,29,19.1,29.4,20,28.9"/>
	<path class="st4" d="M19.9,28.8l-1,0.1C18.9,29,19.2,29.4,19.9,28.8L19.9,28.8z"/>
	<path class="st3" d="M15.8,36.3c0,0,1.4-0.7,0.4-1.9C16.2,34.5,15.3,34.6,15.8,36.3"/>
	<path class="st4" d="M15.9,36.3l0.4-1.8C16.2,34.5,15.3,34.6,15.9,36.3L15.9,36.3z"/>
	<path class="st3" d="M25.2,40.3c0,0,0.8-1.3,2-0.4C27.2,39.9,27.1,40.7,25.2,40.3"/>
	<path class="st4" d="M25.2,40.2l2-0.3C27.2,39.9,27,40.7,25.2,40.2L25.2,40.2z"/>
</g>
</svg>
