<?xml version="1.0" encoding="utf-8"?>
<!-- Generator: Adobe Illustrator 21.0.1, SVG Export Plug-In . SVG Version: 6.00 Build 0)  -->
<svg version="1.1" id="Layer_1" xmlns="http://www.w3.org/2000/svg" xmlns:xlink="http://www.w3.org/1999/xlink" x="0px" y="0px"
	 viewBox="0 0 82 82" style="enable-background:new 0 0 82 82;" xml:space="preserve">
<style type="text/css">
	.st0{fill:none;stroke:#333333;stroke-miterlimit:10;}
	.st1{fill:#822E1A;}
	.st2{fill:#F9A01B;}
</style>
<circle class="st0" cx="41" cy="41.2" r="40"/>
<g>
	<path class="st1" d="M25,70c-1.9-0.6-3.8-1.3-5.3-2.8c-1.7-1.8-2.6-3.9-2.7-6.3c0-10.2,0-20.3,0-30.5c0-4.8,3.7-8.7,8.6-9.1
		c2.9-0.2,5.8,0,8.8,0c0,0.4,0,0.8,0.1,1.3c0.1,3.3,2.6,5.8,5.9,5.9c0.8,0,1.6,0,2.3,0c3.8-0.1,6.3-2.5,6.4-6.3c0-0.3,0-0.5,0.1-1.1
		c3.5,0.2,7,0,10.3,0.5c4.2,0.7,7,4.6,7,8.9c0,10.1,0,20.1,0,30.2c0,4.5-2.9,8.1-7.3,9.1c-0.2,0.1-0.4,0.2-0.6,0.2
		C47.4,70,36.2,70,25,70z M41.8,65.3c5.1,0,10.1,0,15.2,0c2.9,0,4.9-1.9,4.9-4.8c0-10,0-19.9,0-29.9c0-2.8-2-4.7-4.8-4.8
		c-1,0-2,0-2.9,0c-0.7,0-1.1,0.2-1.4,0.9c-1.6,3.4-4.2,5.5-8,6.2c-1.5,0.3-3,0.2-4.5,0.1c-3.6-0.1-6.7-1.5-8.4-4.7
		c-1.3-2.5-3-2.7-5.3-2.6c-3,0.2-4.9,2-4.9,5.1c0,9.8,0,19.6,0,29.5c0,3.1,2,5,5,5C31.8,65.3,36.8,65.3,41.8,65.3z"/>
	<path class="st1" d="M43.8,10c1.8,1,2.4,2.7,2.3,4.9c-0.1,2.6,0,5.2,0,7.8c0,2.3-1.3,3.7-3.4,3.7c-0.7,0-1.4,0-2.1,0
		c-1.6-0.1-3-1.4-3-3.2c-0.1-3.3,0-6.6,0-9.9c0-1.7,1.1-2.5,2.2-3.3C41.1,10,42.5,10,43.8,10z"/>
	<path class="st2" d="M34.6,47.8c4.8,4.4,10,4,14.3,0c2.3,1.9,4.3,4.2,5.2,7.5c1.1,3.8-0.3,6.8-3.6,7.9c-0.9,0.3-1.7,0.5-2.6,0.5
		c-4.4,0-8.9-0.1-13.3-0.2c-0.5,0-1.1-0.2-1.6-0.4c-3.3-1-4.7-4-3.6-7.8C30.4,52,32.3,49.7,34.6,47.8z"/>
	<path class="st1" d="M49.1,42.5c-0.1,4.1-3.4,7.2-7.5,7.1c-4-0.1-7.1-3.4-7-7.5c0.1-4,3.4-7.2,7.5-7.1C46,35.1,49.1,38.4,49.1,42.5
		z"/>
</g>
</svg>
