<?xml version="1.0" encoding="utf-8"?>
<!-- Generator: Adobe Illustrator 21.0.1, SVG Export Plug-In . SVG Version: 6.00 Build 0)  -->
<svg version="1.1" id="Layer_1" xmlns="http://www.w3.org/2000/svg" xmlns:xlink="http://www.w3.org/1999/xlink" x="0px" y="0px"
	 viewBox="0 0 82 82" style="enable-background:new 0 0 82 82;" xml:space="preserve">
<style type="text/css">
	.st0{fill:#333333;}
	.st1{fill:#F9A01B;}
	.st2{fill:#822E1A;}
</style>
<circle class="st0" cx="41" cy="41.2" r="40"/>
<g>
	<g>
		<path class="st1" d="M55.4,42.4c-0.7-0.2-1.3-0.5-2-0.7c-0.7-0.3-1.5-0.6-2.2-0.8c-0.1,0.3-0.2,0.5-0.4,0.8
			c1.1,0.4,2.2,0.8,3.4,1.3C54.1,43,54,43,54,43c-6.9,2.6-13.8,5.3-20.7,7.9C33.1,51,33,51,32.9,51c-6.4-2.4-12.9-4.9-19.4-7.3
			c-0.4-0.2-0.9-0.3-1.4-0.5c1.6-0.6,3.1-1.2,4.6-1.8c0,0.5,0,0.9,0,1.3c0,0.6,0.2,1,0.6,1.3c0.4,0.2,0.7,0.5,1.2,0.6
			c2.2,0.7,4.4,0.7,6.6,0.1c0.5-0.1,1-0.4,1.4-0.7c0.4-0.3,0.6-0.7,0.6-1.3c0-0.8,0-1.6,0-2.5c0-0.6-0.2-1.1-0.7-1.4
			c-0.3-0.2-0.7-0.4-1.1-0.6c0,0-0.1,0-0.2-0.1c0.4-0.2,0.8-0.3,1.2-0.5c-0.1-0.3-0.2-0.5-0.3-0.8c-0.8,0.3-1.6,0.6-2.3,0.9
			c-0.1,0-0.2,0-0.3,0c-1.2-0.1-2.5-0.1-3.7,0.1c-0.8,0.2-1.5,0.4-2.2,0.9c-0.5,0.4-0.8,0.8-0.7,1.4c0,0.1,0,0.2-0.2,0.2
			c-1.9,0.7-3.8,1.5-5.7,2.2c-0.2,0.1-0.3,0.2-0.4,0.3v18.4c0.1,0.2,0.2,0.3,0.4,0.3c7.3,2.7,14.6,5.5,21.9,8.2
			c0.2,0.1,0.4,0.1,0.7,0c7.3-2.8,14.7-5.6,22-8.4c0.2-0.1,0.4-0.2,0.5-0.3V42.8C55.8,42.6,55.6,42.5,55.4,42.4z M18,39.6
			c0.3-0.2,0.7-0.4,1.1-0.6c1.9-0.6,3.9-0.6,5.8-0.1c0.4,0.1,0.9,0.3,1.2,0.6c0.4,0.3,0.4,0.6,0,0.9c-0.2,0.2-0.5,0.3-0.8,0.5
			c-1,0.4-2.1,0.5-3,0.5c-1.3,0-2.3-0.1-3.2-0.4c-0.4-0.1-0.8-0.3-1.1-0.6C17.6,40.2,17.6,39.9,18,39.6z M17.7,41.6v-0.2
			c0.7,0.4,1.4,0.6,2.1,0.8c0.7,0.1,1.5,0.2,2.2,0.3v1.9c0,0,0,0-0.1,0c-1.1,0-2.1-0.1-3.1-0.5c-0.3-0.1-0.6-0.3-0.9-0.5
			c-0.2-0.1-0.3-0.3-0.3-0.5C17.7,42.4,17.7,42,17.7,41.6z M32.6,68.7V69c-0.1,0-0.1,0-0.2-0.1c-7-2.6-13.9-5.3-20.9-7.9
			c-0.1-0.1-0.2-0.1-0.2-0.3c0-5.6,0-11.2,0-16.8v-0.2c0.1,0,0.2,0,0.2,0.1c7,2.6,13.9,5.2,20.9,7.9c0.2,0.1,0.2,0.2,0.2,0.3
			C32.6,57.6,32.6,63.2,32.6,68.7z"/>
		<path class="st2" d="M27.9,44.4c0-0.6,0.2-1,0.7-1.3c0.4-0.3,0.8-0.5,1.3-0.7c2-0.6,4-0.6,6-0.1c0.7,0.2,1.3,0.4,1.8,0.8
			c0.4,0.3,0.6,0.8,0.6,1.3c0,0.8,0,1.7,0,2.5c0,0.5-0.2,1-0.6,1.3c-0.4,0.3-0.7,0.5-1.2,0.6c-2.1,0.7-4.3,0.7-6.5,0.1
			c-0.6-0.2-1.1-0.4-1.5-0.8c-0.4-0.3-0.6-0.7-0.6-1.3c0-0.4,0-0.8,0-1.2C27.9,45.2,27.9,44.8,27.9,44.4z M30,43.3
			c-0.3,0.1-0.7,0.3-1,0.5c-0.4,0.3-0.4,0.6,0,0.9c0.4,0.4,1,0.5,1.5,0.7c1.9,0.5,3.8,0.4,5.6-0.2c0.3-0.1,0.7-0.3,1-0.5
			c0.4-0.3,0.4-0.6,0-0.8c-0.3-0.2-0.7-0.4-1-0.5c-1-0.4-2-0.5-3.1-0.5C32,42.8,31,42.9,30,43.3z M28.8,45.6c0,0.2,0,0.4,0,0.6
			c0,0.3,0,0.6,0,0.8c0,0.2,0.1,0.4,0.2,0.5c0.3,0.2,0.5,0.4,0.8,0.5c1,0.4,2.1,0.6,3.3,0.6c0,0,0,0,0.1,0c0-0.6,0-1.3,0-1.9
			C31.6,46.5,30.1,46.3,28.8,45.6z"/>
	</g>
</g>
<g>
	<g>
		<path class="st1" d="M24.8,18.1c1.8-0.7,3.7-1.5,5.5-2.2c0.1,0,0.2-0.1,0.2-0.2c-0.1-0.6,0.2-1.1,0.7-1.4c0.6-0.5,1.4-0.7,2.1-0.9
			c1.2-0.2,2.4-0.3,3.6-0.1c0.1,0,0.2,0,0.3,0c1.3-0.5,2.7-1,4-1.6c0.1,0,0.2-0.1,0.2-0.3c0-0.6,0.2-1.1,0.7-1.4
			c0.6-0.5,1.3-0.7,2-0.9c1.8-0.4,3.7-0.3,5.5,0.3c0.4,0.2,0.9,0.4,1.2,0.7c0.4,0.3,0.6,0.7,0.6,1.3c0,0.1,0,0.2,0.1,0.2
			c1.3,0.5,2.7,1.1,4,1.6c0.1,0,0.2,0,0.2,0c1.4-0.1,2.8-0.1,4.1,0.4c0.5,0.2,1,0.4,1.4,0.7c0.5,0.4,0.8,0.8,0.7,1.4
			c0,0.1,0.1,0.2,0.2,0.2c1.2,0.5,2.4,1,3.7,1.5c0.6,0.3,1.3,0.5,1.9,0.8c0.2,0.1,0.3,0.2,0.5,0.4c0,6.2-0.1,12.5-0.1,18.7
			c-0.1,0.2-0.3,0.3-0.5,0.3c-7.1,2.8-14.2,5.6-21.3,8.4c-0.2,0.1-0.4,0.1-0.6,0c-7-2.8-14-5.7-21.1-8.5c-0.2-0.1-0.3-0.2-0.4-0.3
			c0-6.2,0.1-12.5,0.1-18.7C24.4,18.3,24.6,18.2,24.8,18.1z M45.6,44.7c0-5.7,0.1-11.3,0.1-17c0-0.2,0-0.3-0.2-0.3
			c-6.7-2.7-13.4-5.4-20.1-8.1c-0.1,0-0.1,0-0.2-0.1c0,0.1,0,0.2,0,0.2c0,5.7-0.1,11.4-0.1,17c0,0.2,0,0.2,0.2,0.3
			c6.7,2.7,13.4,5.4,20.2,8.1c0,0,0.1,0,0.2,0.1C45.6,44.9,45.6,44.8,45.6,44.7z M38.6,13.6c0.1,0,0.1,0.1,0.2,0.1
			c0.4,0.2,0.7,0.4,1.1,0.6c0.5,0.3,0.7,0.8,0.7,1.5c0,0.8,0,1.7,0,2.5c0,0.6-0.2,1-0.6,1.3c-0.4,0.3-0.8,0.6-1.3,0.7
			c-2.2,0.7-4.3,0.6-6.4-0.1c-0.4-0.1-0.8-0.4-1.1-0.6c-0.4-0.3-0.6-0.8-0.6-1.3c0-0.4,0-0.9,0-1.4c-1.5,0.6-3,1.2-4.5,1.8
			c0.5,0.2,0.9,0.4,1.3,0.5c6.2,2.5,12.4,5,18.6,7.5c0.1,0.1,0.2,0.1,0.4,0c6.7-2.6,13.4-5.3,20.1-7.9c0.1,0,0.1,0,0.2-0.1
			c-1.5-0.6-3-1.2-4.6-1.8c0,0.1,0,0.2,0,0.2c0,0.5,0,0.9,0,1.4c0,0.4-0.1,0.7-0.4,1c-0.3,0.4-0.7,0.6-1.1,0.8
			c-1.2,0.5-2.5,0.6-3.8,0.6c-1.1,0-2.2-0.2-3.3-0.7c-0.4-0.2-0.7-0.4-1-0.6c-0.4-0.3-0.5-0.7-0.5-1.2c0-0.9,0-1.7,0-2.6
			c0-0.6,0.2-1,0.6-1.3c0.4-0.3,0.8-0.5,1.2-0.7c0.1,0,0.1,0,0.2-0.1c-0.9-0.4-1.8-0.7-2.7-1.1c0,0.1,0,0.2,0,0.2c0,0.4,0,0.9,0,1.3
			c0,0.5-0.2,0.9-0.5,1.2c-0.5,0.4-1,0.7-1.6,0.8c-2.1,0.6-4.2,0.6-6.3-0.2c-0.4-0.2-0.8-0.4-1.2-0.7c-0.3-0.3-0.5-0.7-0.5-1.2
			c0-0.5,0-0.9,0-1.4C40.4,12.9,39.5,13.3,38.6,13.6z M49.4,12.2c0.3-0.1,0.6-0.3,0.9-0.5c0.4-0.3,0.4-0.6,0-0.9
			c-0.4-0.3-0.8-0.5-1.3-0.6c-1.9-0.5-3.8-0.6-5.7,0.1c-0.3,0.1-0.6,0.3-0.9,0.5c-0.3,0.3-0.3,0.5,0,0.8c0.4,0.4,0.9,0.6,1.4,0.7
			c0.8,0.3,1.7,0.4,2.6,0.4C47.4,12.7,48.4,12.6,49.4,12.2z M60.1,16.5c0.3-0.1,0.6-0.3,0.9-0.5c0.4-0.3,0.4-0.6,0-0.9
			c-0.4-0.3-0.8-0.5-1.3-0.7c-1.8-0.5-3.6-0.5-5.4,0.1c-0.4,0.1-0.7,0.3-1,0.5c-0.4,0.3-0.4,0.6,0,1c0.4,0.4,1,0.5,1.5,0.7
			c0.3,0.1,0.6,0.2,0.9,0.2C56.1,17,56.6,17,57,17C58.1,17,59.1,16.9,60.1,16.5z M38.6,16.4c0.3-0.1,0.6-0.3,0.8-0.5
			c0.4-0.3,0.4-0.6,0-0.9c-0.3-0.3-0.8-0.5-1.2-0.6c-1.9-0.6-3.7-0.6-5.6,0c-0.4,0.1-0.7,0.3-1,0.6c-0.4,0.3-0.4,0.6,0,0.9
			c0.3,0.3,0.7,0.5,1.1,0.6c0.8,0.3,1.8,0.4,3.1,0.4C36.6,17,37.6,16.9,38.6,16.4z M44.2,13.3c-0.7-0.1-1.4-0.4-2-0.8
			c0,0.2,0,0.3,0,0.4c0,0.3,0,0.6,0,1c0,0.2,0.1,0.4,0.2,0.5c0.3,0.2,0.5,0.4,0.8,0.5c1,0.4,2,0.5,3,0.6c0,0,0,0,0.1,0
			c0-0.6,0-1.3,0-1.9C45.6,13.5,44.9,13.5,44.2,13.3z M35.5,17.9c-0.7-0.1-1.4-0.2-2.1-0.3c-0.7-0.1-1.4-0.4-2-0.8
			c0,0.1,0,0.2,0,0.2c0,0.4,0,0.8,0,1.2c0,0.2,0.1,0.4,0.2,0.6c0.3,0.2,0.5,0.4,0.8,0.5c1,0.4,2,0.5,3,0.5c0,0,0,0,0.1,0
			C35.5,19.2,35.5,18.5,35.5,17.9z M52.9,18.5c0,0.1,0.1,0.3,0.2,0.3c0.3,0.2,0.5,0.4,0.8,0.5c1,0.4,2,0.5,3,0.6c0,0,0,0,0.1,0
			c0-0.6,0-1.3,0-2c-1.4-0.1-2.9-0.2-4.2-1C52.8,17.4,52.8,18,52.9,18.5z M45.6,44.7c0-5.7,0.1-11.3,0.1-17c0-0.2,0-0.3-0.2-0.3
			c-6.7-2.7-13.4-5.4-20.1-8.1c-0.1,0-0.1,0-0.2-0.1c0,0.1,0,0.2,0,0.2c0,5.7-0.1,11.4-0.1,17c0,0.2,0,0.2,0.2,0.3
			c6.7,2.7,13.4,5.4,20.2,8.1c0,0,0.1,0,0.2,0.1C45.6,44.9,45.6,44.8,45.6,44.7z"/>
		<path class="st2" d="M41.2,20c0-0.6,0.2-1,0.7-1.4c0.4-0.3,0.8-0.5,1.3-0.7c1.9-0.6,3.9-0.6,5.8-0.1c0.6,0.2,1.2,0.4,1.7,0.9
			c0.4,0.3,0.6,0.8,0.6,1.3c0,0.9,0,1.7,0,2.6c0,0.5-0.2,1-0.6,1.3c-0.3,0.3-0.7,0.5-1.1,0.6c-2.1,0.7-4.2,0.7-6.3,0.1
			c-0.5-0.2-1-0.4-1.5-0.8c-0.4-0.3-0.6-0.8-0.6-1.3c0-0.4,0-0.8,0-1.3C41.2,20.8,41.2,20.4,41.2,20z M43.2,18.8
			c-0.3,0.1-0.7,0.3-1,0.5c-0.4,0.3-0.4,0.6,0,0.9c0.4,0.4,0.9,0.6,1.4,0.7c1.8,0.5,3.6,0.5,5.4-0.1c0.3-0.1,0.7-0.3,0.9-0.5
			c0.4-0.3,0.4-0.6,0-0.9c-0.3-0.2-0.6-0.4-1-0.6c-0.9-0.4-1.9-0.5-2.9-0.5C45.2,18.4,44.2,18.5,43.2,18.8z M42,21.2
			c0,0.2,0,0.4,0,0.6c0,0.3,0,0.6,0,0.8c0,0.2,0.1,0.4,0.2,0.5c0.2,0.2,0.5,0.4,0.8,0.5c1,0.5,2.1,0.6,3.1,0.6c0,0,0,0,0.1,0
			c0-0.6,0-1.3,0-2C44.7,22.1,43.3,21.9,42,21.2z"/>
	</g>
</g>
</svg>
