<?xml version="1.0" encoding="utf-8"?>
<!-- Generator: Adobe Illustrator 21.0.1, SVG Export Plug-In . SVG Version: 6.00 Build 0)  -->
<svg version="1.1" id="Layer_1" xmlns="http://www.w3.org/2000/svg" xmlns:xlink="http://www.w3.org/1999/xlink" x="0px" y="0px"
	 viewBox="0 0 82 82" style="enable-background:new 0 0 82 82;" xml:space="preserve">
<style type="text/css">
	.st0{fill:#333333;}
	.st1{clip-path:url(#SVGID_2_);}
	.st2{fill:#822E1A;}
	.st3{fill:#F9A01B;}
	.st4{fill:none;stroke:#333333;stroke-miterlimit:10;}
</style>
<circle class="st0" cx="41" cy="41.2" r="40"/>
<g>
	<defs>
		<ellipse id="SVGID_1_" cx="41" cy="41.1" rx="40" ry="40.1"/>
	</defs>
	<clipPath id="SVGID_2_">
		<use xlink:href="#SVGID_1_"  style="overflow:visible;"/>
	</clipPath>
	<g class="st1">
		<g>
			<path class="st2" d="M41.5,1.7C30.9-9.8,15.7-17-1.2-17c-32.2,0-58.3,26.1-58.3,58.4c0,32.2,26.1,58.4,58.3,58.4
				c16.9,0,32-7.2,42.7-18.7c-9.7-10.4-15.6-24.4-15.6-39.7C25.9,26.1,31.9,12.1,41.5,1.7z"/>
			<g>
				<path class="st3" d="M84.2-17c-16.9,0-32,7.2-42.7,18.7c9.7,10.4,15.6,24.4,15.6,39.7c0,15.3-5.9,29.3-15.6,39.7
					c10.6,11.5,25.8,18.7,42.7,18.7c32.2,0,58.3-26.1,58.3-58.4C142.5,9.2,116.4-17,84.2-17z"/>
			</g>
		</g>
	</g>
</g>
<circle class="st4" cx="41" cy="41.2" r="40"/>
</svg>
