<?xml version="1.0" encoding="utf-8"?>
<!-- Generator: Adobe Illustrator 21.0.1, SVG Export Plug-In . SVG Version: 6.00 Build 0)  -->
<svg version="1.1" id="Layer_1" xmlns="http://www.w3.org/2000/svg" xmlns:xlink="http://www.w3.org/1999/xlink" x="0px" y="0px"
	 viewBox="0 0 82 82" style="enable-background:new 0 0 82 82;" xml:space="preserve">
<style type="text/css">
	.st0{fill:none;stroke:#333333;stroke-miterlimit:10;}
	.st1{fill:#F9A01F;}
	.st2{clip-path:url(#SVGID_2_);fill:#822D1A;}
	.st3{clip-path:url(#SVGID_2_);fill:#F9A01F;}
</style>
<circle class="st0" cx="41" cy="41.2" r="40"/>
<path class="st1" d="M41.5,69.4c-5.9,0-11.7,0-17.6,0c-1.6,0-2.9-0.8-3.1-2c-0.1-0.8-0.1-1.6-0.1-2.5c0-0.4,0.1-0.7,0.1-1
	c0.1-2.2,1.1-3.3,3.4-3.4c2-0.1,4,0,6,0c0.6,0,1.2,0,1.8,0c0.5,0,1-0.1,1.5-0.2c-0.4-0.4-0.7-0.9-1-1.3c-1.3-1.2-2.6-2.3-3.7-3.6
	c-0.6-0.7-1.2-1-2.1-1c-1.5,0.1-3,0.1-4.4,0c-2.2,0-3.2-1.6-2.2-3.6c0.2-0.4,0.8-0.7,1.3-1c0.3-0.1,0.7-0.1,1-0.1
	c5.2,0,10.5,0.1,15.6-0.1c2.8-0.1,3.2,1.9,2.4,3.8c-0.1,0.1-0.1,0.3-0.2,0.4c-0.4,0.7,0.1,0.9,0.5,1c2.9,0.7,7.7-1,9.6-3.4
	c1.3-1.7,2.1-3.6,2.5-5.7c0.4-2.1-0.3-4-1.1-5.9c-0.3-0.7-1-0.8-1.8-0.9c-1.1,0-2.3,0.1-3.4-0.4c-1-0.4-1.9-1-2.6-1.9
	c-0.7-0.7-0.9-0.7-1.4,0.1c-0.6,0.9-1.1,1.9-1.7,2.8c-0.3,0.4-0.2,0.7,0.3,1.1c1,0.7,1,1.4,0.4,2.4c-0.4,0.7-1,1.4-1.4,2.2
	c-1,1.7-1.8,1.9-3.4,1c-2.8-1.8-5.5-3.6-8.3-5.4c-0.4-0.2-0.8-0.5-1.2-0.7c-1.1-0.6-1.4-1.4-0.9-2.5c0.6-1,1.3-2.1,2-3.1
	c0.7-0.9,1.4-1.2,2.4-0.4c0.7,0.5,1.1,0.2,1.5-0.4c1.9-3.2,3.7-6.4,5.7-9.6c1.4-2.3,3-4.6,4.3-6.9c0.5-0.8,0.9-1.8,1.7-2.4
	c0.6-0.4,1.3-0.8,1.9-0.8c1.2,0,1.6-0.7,2.1-1.5c0.6-1,1.3-2.1,1.9-3c0.7-1,1.5-1.1,2.5-0.5c0.6,0.4,1.2,0.7,1.7,1.2
	c0.6,0.5,0.7,1.3,0.1,2.2c-0.5,1-1.1,1.9-1.8,2.8c-0.7,0.9-1,1.8-0.4,2.8c0.5,0.9,0.4,1.8-0.1,2.7c-0.3,0.6-0.7,1.2-1,1.8
	c-0.5,1-0.5,1,0.5,1.4c2.1,0.8,3.7,2.2,4.7,4.2c0.6,1.2,0.6,2.4,0.5,3.7c-0.1,0.9-0.1,1.7-0.2,2.6c0,0.3,0.1,0.7,0.3,1
	c2.5,3.5,3.1,7.5,2.7,11.6c-0.3,3.1-1.6,6-3.5,8.4c-1.1,1.4-2.4,2.8-4,3.7c-0.2,0.1-0.6,0.5-0.6,0.7c0,0.6,0.6,0.4,1,0.4
	c2.2,0,4.3,0.1,6.4,0c2.5-0.1,4.2,1.6,4,4c-0.1,0.7,0.1,1.3,0,1.9c-0.1,1.9-1.2,2.9-3.2,3c-1.6,0-3.2,0-4.8,0h-13V69.4z"/>
<path d="M99.3,49.7"/>
<g>
	<defs>
		<path id="SVGID_1_" d="M41.5,69.4c-5.9,0-11.7,0-17.6,0c-1.6,0-2.9-0.8-3.1-2c-0.1-0.8-0.1-1.6-0.1-2.5c0-0.4,0.1-0.7,0.1-1
			c0.1-2.2,1.1-3.3,3.4-3.4c2-0.1,4,0,6,0c0.6,0,1.2,0,1.8,0c0.5,0,1-0.1,1.5-0.2c-0.4-0.4-0.7-0.9-1-1.3c-1.3-1.2-2.6-2.3-3.7-3.6
			c-0.6-0.7-1.2-1-2.1-1c-1.5,0.1-3,0.1-4.4,0c-2.2,0-3.2-1.6-2.2-3.6c0.2-0.4,0.8-0.7,1.3-1c0.3-0.1,0.7-0.1,1-0.1
			c5.2,0,10.5,0.1,15.6-0.1c2.8-0.1,3.2,1.9,2.4,3.8c-0.1,0.1-0.1,0.3-0.2,0.4c-0.4,0.7,0.1,0.9,0.5,1c2.9,0.7,7.7-1,9.6-3.4
			c1.3-1.7,2.1-3.6,2.5-5.7c0.4-2.1-0.3-4-1.1-5.9c-0.3-0.7-1-0.8-1.8-0.9c-1.1,0-2.3,0.1-3.4-0.4c-1-0.4-1.9-1-2.6-1.9
			c-0.7-0.7-0.9-0.7-1.4,0.1c-0.6,0.9-1.1,1.9-1.7,2.8c-0.3,0.4-0.2,0.7,0.3,1.1c1,0.7,1,1.4,0.4,2.4c-0.4,0.7-1,1.4-1.4,2.2
			c-1,1.7-1.8,1.9-3.4,1c-2.8-1.8-5.5-3.6-8.3-5.4c-0.4-0.2-0.8-0.5-1.2-0.7c-1.1-0.6-1.4-1.4-0.9-2.5c0.6-1,1.3-2.1,2-3.1
			c0.7-0.9,1.4-1.2,2.4-0.4c0.7,0.5,1.1,0.2,1.5-0.4c1.9-3.2,3.7-6.4,5.7-9.6c1.4-2.3,3-4.6,4.3-6.9c0.5-0.8,0.9-1.8,1.7-2.4
			c0.6-0.4,1.3-0.8,1.9-0.8c1.2,0,1.6-0.7,2.1-1.5c0.6-1,1.3-2.1,1.9-3c0.7-1,1.5-1.1,2.5-0.5c0.6,0.4,1.2,0.7,1.7,1.2
			c0.6,0.5,0.7,1.3,0.1,2.2c-0.5,1-1.1,1.9-1.8,2.8c-0.7,0.9-1,1.8-0.4,2.8c0.5,0.9,0.4,1.8-0.1,2.7c-0.3,0.6-0.7,1.2-1,1.8
			c-0.5,1-0.5,1,0.5,1.4c2.1,0.8,3.7,2.2,4.7,4.2c0.6,1.2,0.6,2.4,0.5,3.7c-0.1,0.9-0.1,1.7-0.2,2.6c0,0.3,0.1,0.7,0.3,1
			c2.5,3.5,3.1,7.5,2.7,11.6c-0.3,3.1-1.6,6-3.5,8.4c-1.1,1.4-2.4,2.8-4,3.7c-0.2,0.1-0.6,0.5-0.6,0.7c0,0.6,0.6,0.4,1,0.4
			c2.2,0,4.3,0.1,6.4,0c2.5-0.1,4.2,1.6,4,4c-0.1,0.7,0.1,1.3,0,1.9c-0.1,1.9-1.2,2.9-3.2,3c-1.6,0-3.2,0-4.8,0h-13V69.4z"/>
	</defs>
	<clipPath id="SVGID_2_">
		<use xlink:href="#SVGID_1_"  style="overflow:visible;"/>
	</clipPath>
	<circle class="st2" cx="50.8" cy="30.5" r="3.7"/>
	<circle class="st3" cx="50.8" cy="30.5" r="2"/>
	<polygon class="st2" points="44.7,14.3 46.5,13.8 51.5,16.5 51.8,18.1 	"/>
	<polygon class="st2" points="28.8,33.3 41.8,41.7 42.2,42.7 41.8,43.9 27.3,34.3 	"/>
	<rect x="18.8" y="50.6" class="st2" width="24" height="1.3"/>
	<rect x="18.7" y="60.3" class="st2" width="44.6" height="2.2"/>
	<rect x="18.7" y="67.2" class="st2" width="44.6" height="2.2"/>
</g>
</svg>
