<?xml version="1.0" encoding="utf-8"?>
<!-- Generator: Adobe Illustrator 21.0.1, SVG Export Plug-In . SVG Version: 6.00 Build 0)  -->
<svg version="1.1" id="Layer_1" xmlns="http://www.w3.org/2000/svg" xmlns:xlink="http://www.w3.org/1999/xlink" x="0px" y="0px"
	 viewBox="0 0 82 82" style="enable-background:new 0 0 82 82;" xml:space="preserve">
<style type="text/css">
	.st0{fill:none;stroke:#333333;stroke-miterlimit:10;}
	.st1{clip-path:url(#SVGID_4_);fill:#F9A01B;}
	.st2{clip-path:url(#SVGID_4_);fill:#333333;}
	.st3{clip-path:url(#SVGID_4_);fill:none;stroke:#333333;stroke-miterlimit:10;}
</style>
<circle class="st0" cx="41" cy="41.2" r="40"/>
<g>
	<defs>
		<circle id="SVGID_1_" cx="41" cy="41.2" r="40"/>
	</defs>
	<clipPath id="SVGID_2_">
		<use xlink:href="#SVGID_1_"  style="overflow:visible;"/>
	</clipPath>
</g>
<g>
	<defs>
		<circle id="SVGID_3_" cx="41" cy="41.2" r="40"/>
	</defs>
	<clipPath id="SVGID_4_">
		<use xlink:href="#SVGID_3_"  style="overflow:visible;"/>
	</clipPath>
	<path class="st1" d="M41,0.4C18.5,0.4,0.2,18.8,0.2,41.6c0,22.8,18.3,41.2,40.8,41.2s40.8-18.5,40.8-41.2
		C81.8,18.8,63.5,0.4,41,0.4z M41,76.4c-19,0-34.4-15.6-34.4-34.8S22,6.8,41,6.8s34.4,15.6,34.4,34.8S60,76.4,41,76.4z"/>
	<path class="st2" d="M41,7.4C22.3,7.4,7.2,22.7,7.2,41.6c0,18.8,15.1,34.1,33.8,34.1s33.8-15.3,33.8-34.1
		C74.8,22.7,59.7,7.4,41,7.4z M41,70.4c-15.7,0-28.5-12.9-28.5-28.8S25.3,12.8,41,12.8s28.5,12.9,28.5,28.8S56.7,70.4,41,70.4z"/>
	<path class="st1" d="M41,13.9c-15.1,0-27.4,12.4-27.4,27.7c0,15.3,12.3,27.7,27.4,27.7s27.4-12.4,27.4-27.7
		C68.4,26.3,56.1,13.9,41,13.9z M41,64.1c-12.3,0-22.3-10.1-22.3-22.5S28.7,19,41,19s22.3,10.1,22.3,22.5S53.3,64.1,41,64.1z"/>
	<path class="st2" d="M41,20.3c-11.6,0-21,9.5-21,21.3c0,11.7,9.4,21.3,21,21.3s21-9.5,21-21.3C62,29.8,52.6,20.3,41,20.3z M41,58.9
		c-9.5,0-17.1-7.7-17.1-17.3S31.5,24.3,41,24.3S58.1,32,58.1,41.6S50.5,58.9,41,58.9z"/>
	<path class="st2" d="M41,25.5c-8.8,0-15.9,7.2-15.9,16.1c0,8.9,7.1,16.1,15.9,16.1s15.9-7.2,15.9-16.1C56.9,32.7,49.8,25.5,41,25.5
		z M41,54.7c-7.2,0-13-5.9-13-13.1s5.8-13.1,13-13.1s13,5.9,13,13.1S48.2,54.7,41,54.7z"/>
	<path class="st2" d="M40.8,28.5c-7.6,0-13.8,6-13.8,13.3s6.2,13.3,13.8,13.3s13.8-6,13.8-13.3S48.4,28.5,40.8,28.5z M40.8,50.3
		c-4.8,0-8.8-3.8-8.8-8.5c0-4.7,3.9-8.5,8.8-8.5s8.8,3.8,8.8,8.5C49.5,46.5,45.6,50.3,40.8,50.3z"/>
	<path class="st1" d="M40.8,34.5c-4.2,0-7.6,3.3-7.6,7.3s3.4,7.3,7.6,7.3s7.6-3.3,7.6-7.3S45,34.5,40.8,34.5z M40.8,46.4
		c-2.7,0-4.8-2.1-4.8-4.7c0-2.6,2.2-4.7,4.8-4.7c2.7,0,4.8,2.1,4.8,4.7C45.6,44.4,43.4,46.4,40.8,46.4z"/>
	<ellipse class="st3" cx="41" cy="41.6" rx="41.6" ry="42"/>
</g>
<circle class="st0" cx="41" cy="41.2" r="40"/>
</svg>
