<?xml version="1.0" encoding="utf-8"?>
<!-- Generator: Adobe Illustrator 21.0.1, SVG Export Plug-In . SVG Version: 6.00 Build 0)  -->
<svg version="1.1" id="Layer_1" xmlns="http://www.w3.org/2000/svg" xmlns:xlink="http://www.w3.org/1999/xlink" x="0px" y="0px"
	 viewBox="0 0 60 60" style="enable-background:new 0 0 60 60;" xml:space="preserve">
<style type="text/css">
	.st0{fill:none;stroke:#333333;stroke-miterlimit:10;}
	.st1{fill:#822E1A;}
	.st2{fill:#F9A01B;}
	.st3{fill:none;stroke:#822E1A;stroke-miterlimit:10;}
</style>
<circle class="st0" cx="30" cy="30.2" r="28.9"/>
<g>
	<path class="st1" d="M-60.4,15c1.2-0.3,2.2-0.7,3.1-1c0.9-0.4,1.7-0.8,2.4-1.4c0.6-0.5,1.1-1.2,1.5-1.9c0.3-0.7,0.5-1.6,0.5-2.5
		c0-1.6-0.6-2.8-1.8-3.7c-1.2-0.9-2.9-1.3-5-1.3c-1.4,0-2.5,0.1-3.4,0.3c-0.8,0.2-1.7,0.5-2.6,0.8c-0.3-0.6-0.5-1.2-0.7-1.8
		c-0.2-0.6-0.3-1.3-0.4-2c0.7-0.2,1.4-0.5,2.1-0.6c0.6-0.2,1.2-0.3,1.9-0.4c0.6-0.1,1.2-0.2,1.8-0.2c0.6,0,1.3-0.1,2-0.1
		c3.6,0,6.4,0.8,8.3,2.5c1.9,1.7,2.8,3.8,2.8,6.5c0,1.6-0.3,2.9-0.9,4c-0.6,1.1-1.4,2.1-2.2,2.8c-0.8,0.8-1.7,1.4-2.6,1.8
		s-1.6,0.8-2.2,0.9v4.8c-0.7,0.1-1.5,0.2-2.3,0.2c-0.3,0-0.7,0-1.1,0c-0.4,0-0.7-0.1-1.1-0.1V15z M-60.8,32.4
		c-0.1-0.4-0.1-0.9-0.1-1.3c0-0.4,0-0.8,0-1.3c0-0.4,0-0.9,0-1.3c0-0.4,0.1-0.9,0.1-1.3c0.4-0.1,0.9-0.1,1.3-0.2
		c0.4,0,0.9-0.1,1.3-0.1c0.4,0,0.9,0,1.3,0.1c0.4,0,0.9,0.1,1.3,0.2c0.1,0.4,0.1,0.9,0.1,1.3c0,0.4,0,0.8,0,1.3c0,0.4,0,0.9,0,1.3
		c0,0.4-0.1,0.9-0.1,1.3c-0.4,0.1-0.8,0.1-1.2,0.1c-0.4,0-0.9,0-1.3,0s-0.9,0-1.4,0C-60,32.5-60.4,32.4-60.8,32.4z"/>
</g>
<path class="st2" d="M84.4,15.8c4.8,4.4,10,4,14.3,0c2.3,1.9,4.3,4.2,5.2,7.5c1.1,3.8-0.3,6.8-3.6,7.9c-0.9,0.3-1.7,0.5-2.6,0.5
	c-4.4,0-8.9-0.1-13.3-0.2c-0.5,0-1.1-0.2-1.6-0.4c-3.3-1-4.7-4-3.6-7.8C80.1,20,82,17.7,84.4,15.8z"/>
<g>
	<path class="st3" d="M44.4,42.1l-4.5-4c-0.4-0.4-1-0.3-1.4,0L37,36.6c2.6-2.1,4.3-5.3,4.3-8.9c0-6.3-5.2-11.5-11.5-11.5
		s-11.5,5.2-11.5,11.5s5.2,11.5,11.5,11.5c2.4,0,4.6-0.7,6.4-2L38,39c-0.1,0.3,0,0.7,0.3,1l4.5,4c0.4,0.4,1,0.3,1.4-0.1l0.3-0.3
		C44.9,43.1,44.8,42.5,44.4,42.1z"/>
</g>
</svg>
